<?xml version="1.0" encoding="UTF-8" standalone="no"?>
<svg xmlns="http://www.w3.org/2000/svg" xmlns:osb="http://www.openswatchbook.org/uri/2009/osb" height="39.5106" viewBox="0 0 56.076023 37.041206" width="59.8144" version="1.1">
 <g transform="translate(-273.434 -534.278)">
  <g opacity=".122642" stroke-opacity=".392157" transform="matrix(1.2459 -.482843 -.0705846 1.76642 125.334 342.949)" stroke="#000000" fill="none">
   <g>
    <g stroke-linecap="round">
     <circle stroke-linejoin="round" cx="130.726" cy="160.382" r="2.23591"/>
     <circle stroke-linejoin="round" cx="130.726" transform="translate(8.571 -.149068)" cy="160.382" r="2.23591"/>
     <path d="m130.652 160.382c2.01233-5.36619 2.01233-5.36619 2.01233-5.36619" stroke-width="0.6"/>
    </g>
    <path d="m131.993 156.655 3.18363 3.95012 2.68095-4.02465h-0.0837" stroke-width=".636142"/>
    <path d="m132.59 157.251h5.1426l1.56514 2.90668v0" stroke-linecap="round" stroke-width="0.6"/>
   </g>
   <path d="m136.982 156.208h1.58035" stroke-linecap="round" stroke-width=".789718px"/>
  </g>
  <g stroke="#000000" fill="none">
   <circle opacity=".122642" stroke-linejoin="round" stroke-width="2.5" stroke-opacity=".407080" cy="152.071" stroke-linecap="round" transform="matrix(1.23285 0 0 1.26316 153.06 346.641)" cx="137.993" r="1.22975"/>
   <path opacity=".122642" d="m319.794 546.482 4.91901 2.31045 3.35387-3.57747" stroke-opacity=".407080" stroke-width="1.9"/>
   <g stroke-opacity=".407080" stroke-linecap="round">
    <ellipse opacity=".122642" stroke-linejoin="round" rx="1.08069" cy="155.798" transform="matrix(.978712 .360743 -.346569 .940257 242.489 350.339)" ry="4.43456" cx="130.615" stroke-width="2.5"/>
    <path opacity=".122642" d="m328.141 543.32c-1.34155 9.49681-1.41608 9.49681-1.41608 9.49681" stroke-width="1.48505"/>
    <path opacity=".122642" d="m321.778 544.2c-3.3186 7.2698-3.44625 7.56533-3.44625 7.56533" stroke-width="4.54898"/>
   </g>
   <path opacity=".122642" stroke-linejoin="round" d="m293.978 543.717 6.26056-7.25754 2.73609 2.31129 3.599-3.67208 3.652 8.16474 2.90668-3.25078h0.2236" stroke-opacity=".392157" stroke-width="1.51072"/>
  </g>
  <g opacity=".122642" stroke-opacity=".392157" transform="matrix(1.12832 -.390850 -.0639236 1.42988 159.062 371.55)" stroke="#000000" fill="none">
   <g>
    <g stroke-linecap="round">
     <circle stroke-linejoin="round" cx="130.726" cy="160.382" r="2.23591"/>
     <circle stroke-linejoin="round" cx="130.726" transform="translate(8.571 -.149068)" cy="160.382" r="2.23591"/>
     <path d="m130.652 160.382c2.01233-5.36619 2.01233-5.36619 2.01233-5.36619" stroke-width="0.6"/>
    </g>
    <path d="m131.993 156.655 3.18363 3.95012 2.68095-4.02465h-0.0837" stroke-width=".636142"/>
    <path d="m132.59 157.251h5.1426l1.56514 2.90668v0" stroke-linecap="round" stroke-width="0.6"/>
   </g>
   <path d="m136.982 156.208h1.58035" stroke-linecap="round" stroke-width=".789718px"/>
  </g>
  <g stroke-linejoin="round" stroke-opacity=".392157" stroke="#000000" fill="none">
   <g stroke-linecap="round" stroke-width=".5">
    <circle opacity=".122642" cy="162.376" transform="matrix(.770053 0 0 .835885 177.174 412.658)" cx="129.403" r="1.62831"/>
    <circle opacity=".122642" cy="162.376" transform="matrix(.770053 0 0 .835885 180.213 412.658)" cx="129.403" r="1.62831"/>
    <circle opacity=".122642" cy="162.376" transform="matrix(.770053 0 0 .835885 183.252 412.658)" cx="129.403" r="1.62831"/>
    <circle opacity=".122642" cy="162.376" transform="matrix(.770053 0 0 .835885 186.291 412.658)" cx="129.403" r="1.62831"/>
   </g>
   <path opacity=".122642" d="m277.277 541.839-0.5747 5.1723 8.81206 0.0639-0.447-1.08554c-5.01565-0.31928-4.19317-0.38313-5.93855-1.59639l0.5747-2.49036z" stroke-width="2"/>
   <g stroke-linecap="round" stroke-width=".5">
    <circle opacity=".122642" cy="162.376" transform="matrix(.770053 0 0 .835885 182.075 406.613)" cx="129.403" r="1.62831"/>
    <circle opacity=".122642" cy="162.376" transform="matrix(.770053 0 0 .835885 185.114 406.613)" cx="129.403" r="1.62831"/>
    <circle opacity=".122642" cy="162.376" transform="matrix(.770053 0 0 .835885 188.153 406.613)" cx="129.403" r="1.62831"/>
    <circle opacity=".122642" cy="162.376" transform="matrix(.770053 0 0 .835885 191.192 406.613)" cx="129.403" r="1.62831"/>
   </g>
   <path opacity=".122642" d="m282.178 535.794-0.5747 5.1723 8.81206 0.0639-0.447-1.08554c-5.01565-0.31928-4.19317-0.38313-5.93855-1.59639l0.5747-2.49036z" stroke-width="2"/>
  </g>
  <path opacity=".0424528" style="color:#000000" d="m317.572 554.82c-0.5469 0-1.10216 0.0938-1.625 0.25-0.82934-0.1862-1.68391-0.25368-2.53125-0.1875 0.45072 0.35458 0.86057 0.70194 1.28125 1.0625 0.1742 1.11178 0.0516 2.25722 0.0937 3.375-0.012 0.36058 0.1035 2.03607 0.1875 2.78125-0.048 0.64904 0.64544 0.97235 1.3125 0.90625 0.33654-0.036 0.36897-0.28367 0.84375-0.34375 0.30648-0.1924 0.18859-0.56852 0.21875-0.875 0.0542-0.7452 0.40026-1.42909 0.5625-2.15625 0.26442-0.1022 0.52165-0.21757 0.75-0.34375 0.51682 0.81128 0.76923 1.73798 0.78125 2.6875 0.018 0.84135 0.0312 1.68989 0.0312 2.53125 0.002 0.008 0.0277 0.0222 0.0312 0.0312 0.0422 0.64302 0.19952 1.25962 0.5 1.8125-1.10576 0.1862-2.14663 0.51322-3.15625 1-0.40864 0.22836-0.91706 0.43511-1.1875 0.84375-0.012 0-0.0312-0.012-0.0312 0-0.1442 0.22836-0.14775 0.4976-0.0937 0.75 0.18248 0.84083 0.4087 1.6346 0.65625 2.375h1.4375c-0.075-0.49515-0.12025-0.98925-0.21875-1.5-0.0782-0.21034-0.01-0.39663 0.21875-0.46875 0.4928-0.0602 0.96274-0.15501 1.4375-0.28125 1.02164-0.048 2.05408-0.27762 2.9375-0.8125 0.78726 0.4267 1.07331 1.27284 1.5 2 0.22235 0.34762 0.45256 0.70489 0.65625 1.0625h2c-0.26667-1.02941-0.41786-2.07881-0.625-3.125 1.3215 0.2116 2.64556 0.21214 3.96875 0.0937v-8.09375c-0.99231 0.10864-1.98442 0.17645-3.09375 0.0625-4.00841-0.51682-4.47478-5.35336-8.84375-5.4375z" fill="#000000"/>
  <path opacity=".0566038" style="color:#000000;text-indent:0;text-decoration-line:none;text-transform:none" d="m304.687 557.085c-0.49799 0.92383-0.31297 2.0958 0.40625 2.78125l-2.40625 4.40625-0.46875-1.875c0.4675 0.0494 0.93597-0.0467 1.34375-0.375l-0.53125-0.875c-0.49031 0.39473-1.18097 0.26962-1.53125-0.28125-0.35029-0.55086-0.24031-1.32402 0.25-1.71875l-0.53125-0.84375c-0.90176 0.72598-1.11759 2.13588-0.46875 3.15625 0.0811 0.12755 0.18259 0.24098 0.28125 0.34375l0.9375 3.78125-0.1875 0.34375-0.125-0.1875-0.4375 0.25-0.78125 0.46875-0.0312 0.0312-0.78125 0.46875-0.71875-1.3125 0.90625-3.65625c0.0917-0.13118 0.18375-0.27978 0.25-0.4375 0.4776-1.13692 0.0532-2.50804-0.9375-3.0625l-0.40625 0.9375c0.53868 0.30147 0.75784 1.04246 0.5 1.65625-0.25784 0.61378-0.89882 0.86397-1.4375 0.5625l-0.375 0.96875c0.38081 0.21312 0.76571 0.28857 1.15625 0.21875l-0.375 1.46875-2.40625-4.5c0.62903-0.6954 0.8154-1.75002 0.34375-2.625l-0.84375 0.5c0.30945 0.57407 0.12726 1.29509-0.40625 1.625-0.53352 0.32991-1.2218 0.13657-1.53125-0.4375l-0.8125 0.53125c0.49279 0.91419 1.49942 1.30612 2.40625 1l2.4375 4.5-1.8125-0.53125c0.27999-0.41114 0.43726-0.92019 0.375-1.46875l-0.96875 0.0625c0.074 0.65216-0.34819 1.20052-0.96875 1.25-0.62056 0.0495-1.17598-0.41034-1.25-1.0625l-1 0.0625c0.13614 1.19942 1.19427 2.12289 2.34375 2.03125 0.15701-0.0125 0.29406-0.0784 0.4375-0.125l3.5 1 0.21875 0.40625h-0.3125v1.5l-0.0312 0.0312 0.0312 0.0625v0.9375h-1.40625l-2.5-2.6875c-0.0614-0.1578-0.1201-0.29086-0.21875-0.4375-0.68049-1.01145-2.02507-1.32922-2.96875-0.6875l0.5625 0.875c0.5131-0.34891 1.22638-0.2023 1.59375 0.34375 0.36737 0.54604 0.2631 1.24484-0.25 1.59375l0.5625 0.875c0.37111-0.25236 0.61351-0.6228 0.75-1.03125l1.09375 1.15625h-4.875c-0.23614-0.94981-1.04429-1.65625-2-1.65625v1.03125c0.6189 0 1.09375 0.52769 1.09375 1.1875 0 0.65982-0.47485 1.1875-1.09375 1.1875v1.03125c0.99598 0 1.83661-0.7714 2.03125-1.78125h4.84375l-1.34375 1.4375c-0.19251-0.46493-0.52558-0.87734-1-1.09375l-0.4375 0.9375c0.56433 0.25741 0.80152 0.96216 0.53125 1.5625-0.27028 0.60034-0.93567 0.88242-1.5 0.625l-0.40625 0.9375c1.03789 0.47343 2.28061-0.0442 2.78125-1.15625 0.0713-0.15846 0.12222-0.33683 0.15625-0.5l2.5625-2.75h0.25l-0.125 0.1875 0.40625 0.25 0.90625 0.5625v0.0312h0.0625l0.6875 0.40625-0.78125 1.40625-3.3125 0.96875c-0.16782-0.0261-0.32108-0.0506-0.5-0.0312-1.15809 0.12546-2.07829 1.21007-2.03125 2.40625l1-0.0937c-0.0256-0.65039 0.43729-1.21352 1.0625-1.28125 0.62521-0.0677 1.13067 0.38086 1.15625 1.03125l1-0.0937c-0.019-0.48179-0.19554-0.91569-0.46875-1.25l1.4375-0.40625-2.4375 4.53125c-0.87553-0.23306-1.84169 0.15785-2.3125 1.03125l0.84375 0.5c0.30945-0.57407 0.99773-0.76741 1.53125-0.4375 0.53351 0.3299 0.7157 1.05094 0.40625 1.625l0.8125 0.53125c0.49052-0.90997 0.31798-2.0609-0.375-2.75l2.375-4.4375 0.46875 1.875c-0.46371-0.0459-0.93952 0.0496-1.34375 0.375l0.5625 0.875c0.49031-0.39473 1.14971-0.26962 1.5 0.28125 0.35028 0.55086 0.24031 1.29277-0.25 1.6875l0.5625 0.875c0.90176-0.72598 1.08634-2.16713 0.4375-3.1875-0.095-0.14932-0.19395-0.25971-0.3125-0.375l-0.90625-3.71875 0.1875-0.375 0.15625 0.21875 0.40625-0.25 1.59375-1 0.71875 1.34375-0.90625 3.75c-0.0747 0.11471-0.16261 0.24136-0.21875 0.375-0.4776 1.13692-0.0532 2.50804 0.9375 3.0625l0.40625-0.96875c-0.53868-0.30147-0.75784-1.01121-0.5-1.625 0.25783-0.61378 0.86757-0.86397 1.40625-0.5625l0.40625-0.96875c-0.3932-0.22005-0.81704-0.26836-1.21875-0.1875l0.40625-1.5625 2.4375 4.53125c-0.63349 0.69514-0.81674 1.77882-0.34375 2.65625l0.84375-0.5c-0.30945-0.57407-0.12727-1.29509 0.40625-1.625 0.53351-0.32991 1.19054-0.13657 1.5 0.4375l0.84375-0.53125c-0.49799-0.92382-1.52364-1.32438-2.4375-1l-2.4375-4.53125 1.84375 0.53125c-0.28997 0.41449-0.43837 0.94175-0.375 1.5l0.96875-0.0625c-0.074-0.65216 0.34819-1.23177 0.96875-1.28125 0.62056-0.0495 1.17598 0.44159 1.25 1.09375l0.96875-0.0937c-0.13614-1.19942-1.16302-2.09164-2.3125-2-0.17854 0.0142-0.37056 0.0359-0.53125 0.0937l-3.4375-1-0.1875-0.34375h0.3125v-2.53125h1.4375l2.53125 2.6875c0.0609 0.15506 0.12173 0.32455 0.21875 0.46875 0.68049 1.01145 1.99382 1.29797 2.9375 0.65625l-0.5625-0.84375c-0.51311 0.34891-1.22637 0.17105-1.59375-0.375-0.36737-0.54604-0.26311-1.24484 0.25-1.59375l-0.5625-0.84375c-0.38172 0.25958-0.64808 0.60849-0.78125 1.03125l-1.09375-1.1875h4.90625c0.22914 0.96065 1.03708 1.6875 2 1.6875v-1.0625c-0.6189 0-1.09375-0.52769-1.09375-1.1875 0-0.65982 0.47485-1.15625 1.09375-1.15625v-1.0625c-0.99599 0-1.83661 0.77141-2.03125 1.78125h-4.84375l1.3125-1.4375c0.18887 0.48194 0.54376 0.8714 1.03125 1.09375l0.4375-0.9375c-0.56433-0.25742-0.80153-0.93091-0.53125-1.53125 0.27027-0.60034 0.93567-0.88242 1.5-0.625l0.40625-0.9375c-1.0379-0.47343-2.28061 0.0442-2.78125 1.15625-0.067 0.14874-0.12222 0.28447-0.15625 0.4375l-2.59375 2.78125h-0.3125l0.15625-0.28125-0.40625-0.25-1.65625-1.03125 0.78125-1.375 3.25-0.9375c0.18576 0.0348 0.39368 0.0529 0.59375 0.0312 1.15809-0.12546 2.04703-1.24132 2-2.4375l-0.96875 0.125c0.0256 0.65039-0.46854 1.21352-1.09375 1.28125-0.62521 0.0677-1.13068-0.38086-1.15625-1.03125l-0.96875 0.0937c0.0183 0.4661 0.17968 0.88932 0.4375 1.21875l-1.46875 0.4375 2.46875-4.53125c0.88075 0.24421 1.83822-0.15141 2.3125-1.03125l-0.84375-0.53125c-0.30946 0.57407-0.96649 0.76741-1.5 0.4375-0.53352-0.3299-0.71571-1.01969-0.40625-1.59375l-0.84375-0.53125zm-4.21875 10.5312 0.3125 0.1875-0.34375 0.65625-0.34375-0.625zm-1.21875 0.75 0.375 0.6875h-0.6875v-0.46875zm2.375 0 0.25 0.15625v0.5h-0.59375zm-0.4375 1.65625h0.6875v0.40625l-0.34375 0.21875zm-2.25 0.0312h0.53125l-0.3125 0.5625-0.21875-0.125zm1.40625 0.46875 0.34375 0.625-0.34375 0.21875-0.34375-0.1875z" fill="#222222"/>
 </g>
</svg>
