<?xml version="1.0" encoding="UTF-8" standalone="no"?>
<svg xmlns="http://www.w3.org/2000/svg" xmlns:osb="http://www.openswatchbook.org/uri/2009/osb" height="25.3867" viewBox="0 0 23.5 23.799999" width="25.0667" version="1.1">
 <g transform="translate(-124.714 -145.648)">
  <rect stroke-linejoin="round" stroke-opacity=".392157" fill-opacity=".274510" height="20" width="20" stroke="#000000" stroke-linecap="round" y="148.448" x="127.21" stroke-width="2" fill="#ffffff"/>
  <g stroke="#060a1d" fill="none">
   <path stroke-linejoin="round" d="m126.002 157.21 6.26056-7.25754 2.73609 2.31129 3.599-3.67208 3.652 8.16474 2.90668-3.25078h0.2236" stroke-width="1.51072"/>
   <rect stroke-linejoin="round" height="20" width="20" stroke-linecap="round" y="146.652" x="125.714" stroke-width="2"/>
   <g transform="matrix(1.12832 -.390850 -.0639236 1.42988 -8.91417 -14.9572)">
    <g>
     <g stroke-linecap="round">
      <circle stroke-linejoin="round" cx="130.726" cy="160.382" r="2.23591"/>
      <circle stroke-linejoin="round" cx="130.726" transform="translate(8.571 -.149068)" cy="160.382" r="2.23591"/>
      <path d="m130.652 160.382c2.01233-5.36619 2.01233-5.36619 2.01233-5.36619" stroke-width="0.6"/>
     </g>
     <path d="m131.993 156.655 3.18363 3.95012 2.68095-4.02465h-0.0837" stroke-width=".636142"/>
     <path d="m132.59 157.251h5.1426l1.56514 2.90668v0" stroke-linecap="round" stroke-width="0.6"/>
    </g>
    <path d="m136.982 156.208h1.58035" stroke-linecap="round" stroke-width=".789718px"/>
   </g>
  </g>
  <path stroke-linejoin="round" d="m127.577 158.948 6.26056-7.25754 2.73609 2.31129 3.599-3.67208 3.652 8.16474 2.90668-3.25078h0.2236" stroke-opacity=".392157" stroke="#000000" stroke-width="1.51072" fill="none"/>
  <g stroke-opacity=".392157" transform="matrix(1.12832 -.390850 -.0639236 1.42988 -7.33916 -13.2197)" stroke="#000000" fill="none">
   <g>
    <g stroke-linecap="round">
     <circle stroke-linejoin="round" cx="130.726" cy="160.382" r="2.23591"/>
     <circle stroke-linejoin="round" cx="130.726" transform="translate(8.571 -.149068)" cy="160.382" r="2.23591"/>
     <path d="m130.652 160.382c2.01233-5.36619 2.01233-5.36619 2.01233-5.36619" stroke-width="0.6"/>
    </g>
    <path d="m131.993 156.655 3.18363 3.95012 2.68095-4.02465h-0.0837" stroke-width=".636142"/>
    <path d="m132.59 157.251h5.1426l1.56514 2.90668v0" stroke-linecap="round" stroke-width="0.6"/>
   </g>
   <path d="m136.982 156.208h1.58035" stroke-linecap="round" stroke-width=".789718px"/>
  </g>
 </g>
</svg>
