<?xml version="1.0" encoding="UTF-8" standalone="no"?>
<svg xmlns="http://www.w3.org/2000/svg" xmlns:osb="http://www.openswatchbook.org/uri/2009/osb" height="25.3867" viewBox="0 0 23.5 23.799999" width="25.0667" version="1.1">
 <g transform="translate(-124.714 -145.648)">
  <rect stroke-linejoin="round" stroke-opacity=".407080" fill-opacity=".274510" height="20" width="20" stroke="#000000" stroke-linecap="round" y="148.448" x="127.21" stroke-width="2" fill="#ffffff"/>
  <g fill="none">
   <g stroke="#000000" stroke-opacity=".407080">
    <circle stroke-linejoin="round" stroke-width="2.5" cy="152.071" stroke-linecap="round" transform="matrix(1.23285 0 0 1.26316 -30.3378 -38.7072)" cx="137.993" r="1.22975"/>
    <path d="m136.396 161.134 4.91901 2.31045 3.35387-3.57747" stroke-width="1.9"/>
    <g stroke-linecap="round">
     <ellipse stroke-linejoin="round" rx="1.08069" cy="155.798" transform="matrix(.978712 .360743 -.346569 .940257 59.0914 -35.0084)" ry="4.43456" cx="130.615" stroke-width="2.5"/>
     <path d="m144.744 157.972c-1.34155 9.49681-1.41608 9.49681-1.41608 9.49681" stroke-width="1.48505"/>
     <path d="m138.38 158.852c-3.3186 7.2698-3.44625 7.56533-3.44625 7.56533" stroke-width="4.54898"/>
    </g>
   </g>
   <g stroke="#092b0b">
    <rect stroke-linejoin="round" height="20" width="20" stroke-linecap="round" y="146.652" x="125.714" stroke-width="2"/>
    <circle stroke-linejoin="round" stroke-width="2.5" cy="152.071" stroke-linecap="round" transform="matrix(1.23285 0 0 1.26316 -32.1322 -40.0559)" cx="137.993" r="1.22975"/>
    <path d="m134.602 159.785 4.91901 2.31045 3.35387-3.57747" stroke-width="1.9"/>
    <g stroke-linecap="round">
     <ellipse stroke-linejoin="round" rx="1.08069" cy="155.798" transform="matrix(.978712 .360743 -.346569 .940257 57.297 -36.3572)" ry="4.43456" cx="130.615" stroke-width="2.5"/>
     <path d="m142.949 156.65c-1.34155 9.49681-1.41608 9.49681-1.41608 9.49681" stroke-width="1.48505"/>
     <path d="m136.586 157.503c-3.3186 7.2698-3.44625 7.56533-3.44625 7.56533" stroke-width="4.54898"/>
    </g>
   </g>
  </g>
 </g>
</svg>
