<?xml version="1.0" encoding="UTF-8" standalone="no"?>
<svg xmlns="http://www.w3.org/2000/svg" xmlns:osb="http://www.openswatchbook.org/uri/2009/osb" height="25.3867" viewBox="0 0 23.5 23.799999" width="25.0667" version="1.1">
 <g transform="translate(-124.714 -145.197)">
  <rect stroke-linejoin="round" stroke-opacity=".407080" fill-opacity=".274510" height="20" width="20" stroke="#000000" stroke-linecap="round" y="147.997" x="127.21" stroke-width="2" fill="#ffffff"/>
  <path fill-opacity=".407843" fill="#000000" d="m134.657 151.092c-0.5469 0-1.10216 0.0938-1.625 0.25-0.82934-0.1862-1.68391-0.25368-2.53125-0.1875 0.45072 0.35458 0.86057 0.70194 1.28125 1.0625 0.1742 1.11178 0.0516 2.25722 0.0937 3.375-0.012 0.36058 0.1035 2.03607 0.1875 2.78125-0.048 0.64904 0.64544 0.97235 1.3125 0.90625 0.33654-0.036 0.36897-0.28367 0.84375-0.34375 0.30648-0.1924 0.18859-0.56852 0.21875-0.875 0.0542-0.7452 0.40026-1.42909 0.5625-2.15625 0.26442-0.1022 0.52165-0.21757 0.75-0.34375 0.51682 0.81128 0.76923 1.73798 0.78125 2.6875 0.018 0.84135 0.0312 1.68989 0.0312 2.53125 0.002 0.008 0.0277 0.0222 0.0312 0.0312 0.0422 0.64302 0.19952 1.25962 0.5 1.8125-1.10576 0.1862-2.14663 0.51322-3.15625 1-0.40864 0.22836-0.91706 0.43511-1.1875 0.84375-0.012 0-0.0312-0.012-0.0312 0-0.1442 0.22836-0.14775 0.4976-0.0937 0.75 0.18248 0.84083 0.4087 1.6346 0.65625 2.375h1.4375c-0.075-0.49515-0.12025-0.98925-0.21875-1.5-0.0782-0.21034-0.01-0.39663 0.21875-0.46875 0.4928-0.0602 0.96274-0.15501 1.4375-0.28125 1.02164-0.048 2.05408-0.27762 2.9375-0.8125 0.78726 0.4267 1.07331 1.27284 1.5 2 0.22235 0.34762 0.45256 0.70489 0.65625 1.0625h2c-0.26667-1.02941-0.41786-2.07881-0.625-3.125 1.3215 0.2116 2.64557 0.21214 3.96876 0.0937v-8.09375c-0.99231 0.10864-1.98442 0.17645-3.09376 0.0625-4.00841-0.51682-4.47478-5.35336-8.84375-5.4375z"/>
  <path fill="#092b0b" d="m132.847 149.24c-0.5469 0-1.10216 0.0938-1.625 0.25-0.82934-0.1862-1.68391-0.25368-2.53125-0.1875 0.45072 0.35458 0.86057 0.70194 1.28125 1.0625 0.1742 1.11178 0.0516 2.25722 0.0937 3.375-0.012 0.36058 0.1035 2.03607 0.1875 2.78125-0.048 0.64904 0.64544 0.97235 1.3125 0.90625 0.33654-0.036 0.36897-0.28367 0.84375-0.34375 0.30648-0.1924 0.18859-0.56852 0.21875-0.875 0.0542-0.7452 0.40026-1.42909 0.5625-2.15625 0.26442-0.1022 0.52165-0.21757 0.75-0.34375 0.51682 0.81128 0.76923 1.73798 0.78125 2.6875 0.018 0.84135 0.0312 1.68989 0.0312 2.53125 0.002 0.008 0.0277 0.0222 0.0312 0.0312 0.0422 0.64302 0.19952 1.25962 0.5 1.8125-1.10576 0.1862-2.14663 0.51322-3.15625 1-0.40864 0.22836-0.91706 0.43511-1.1875 0.84375-0.012 0-0.0312-0.012-0.0312 0-0.1442 0.22836-0.14775 0.4976-0.0937 0.75 0.18248 0.84083 0.4087 1.6346 0.65625 2.375h1.4375c-0.075-0.49515-0.12025-0.98925-0.21875-1.5-0.0782-0.21034-0.01-0.39663 0.21875-0.46875 0.4928-0.0602 0.96274-0.15501 1.4375-0.28125 1.02164-0.048 2.05408-0.27762 2.9375-0.8125 0.78726 0.4267 1.07331 1.27284 1.5 2 0.22235 0.34762 0.45256 0.70489 0.65625 1.0625h2c-0.26667-1.02941-0.41786-2.07881-0.625-3.125 1.3215 0.2116 2.64556 0.21214 3.96875 0.0937v-8.09375c-0.99231 0.10864-1.98442 0.17645-3.09375 0.0625-4.00841-0.51682-4.47478-5.35336-8.84375-5.4375z"/>
  <rect stroke-linejoin="round" height="20" width="20" stroke="#092b0b" stroke-linecap="round" y="146.201" x="125.714" stroke-width="2" fill="none"/>
 </g>
</svg>
