<?xml version="1.0" encoding="UTF-8" standalone="no"?>
<svg xmlns="http://www.w3.org/2000/svg" xmlns:osb="http://www.openswatchbook.org/uri/2009/osb" height="25.3867" viewBox="0 0 23.5 23.799999" width="25.0667" version="1.1">
 <g stroke-linejoin="round" transform="translate(-124.714 -145.649)">
  <rect stroke-opacity=".392157" fill-opacity=".274510" height="20" width="20" stroke="#000000" stroke-linecap="round" y="148.449" x="127.21" stroke-width="2" fill="#ffffff"/>
  <g fill="none">
   <g stroke-opacity=".392157" stroke="#000000">
    <g stroke-linecap="round" stroke-width=".5">
     <circle cy="162.376" transform="matrix(.770053 0 0 .835885 30.5238 28.8354)" cx="129.403" r="1.62831"/>
     <circle cy="162.376" transform="matrix(.770053 0 0 .835885 33.5628 28.8354)" cx="129.403" r="1.62831"/>
     <circle cy="162.376" transform="matrix(.770053 0 0 .835885 36.6018 28.8354)" cx="129.403" r="1.62831"/>
     <circle cy="162.376" transform="matrix(.770053 0 0 .835885 39.6408 28.8354)" cx="129.403" r="1.62831"/>
    </g>
    <path d="m130.627 158.016-0.5747 5.1723 8.81206 0.0639-0.447-1.08554c-5.01565-0.31928-4.19317-0.38313-5.93855-1.59639l0.5747-2.49036z" stroke-width="2"/>
    <g stroke-linecap="round" stroke-width=".5">
     <circle cy="162.376" transform="matrix(.770053 0 0 .835885 35.4248 22.7903)" cx="129.403" r="1.62831"/>
     <circle cy="162.376" transform="matrix(.770053 0 0 .835885 38.4638 22.7903)" cx="129.403" r="1.62831"/>
     <circle cy="162.376" transform="matrix(.770053 0 0 .835885 41.5028 22.7903)" cx="129.403" r="1.62831"/>
     <circle cy="162.376" transform="matrix(.770053 0 0 .835885 44.5418 22.7903)" cx="129.403" r="1.62831"/>
    </g>
    <path d="m135.528 151.971-0.5747 5.1723 8.81206 0.0639-0.447-1.08554c-5.01565-0.31928-4.19317-0.38313-5.93855-1.59639l0.5747-2.49036z" stroke-width="2"/>
   </g>
   <g stroke="#2d0e1a" stroke-linecap="round">
    <rect height="20" width="20" y="146.648" x="125.714" stroke-width="2"/>
    <g stroke-width=".5">
     <circle cy="162.376" transform="matrix(.770053 0 0 .835885 29.0765 27.0341)" cx="129.403" r="1.62831"/>
     <circle cy="162.376" transform="matrix(.770053 0 0 .835885 32.1155 27.0341)" cx="129.403" r="1.62831"/>
     <circle cy="162.376" transform="matrix(.770053 0 0 .835885 35.1545 27.0341)" cx="129.403" r="1.62831"/>
     <circle cy="162.376" transform="matrix(.770053 0 0 .835885 38.1935 27.0341)" cx="129.403" r="1.62831"/>
    </g>
   </g>
  </g>
  <path d="m129.18 156.214-0.5747 5.1723 8.81206 0.0639-0.447-1.08554c-5.01565-0.31928-4.19317-0.38313-5.93855-1.59639l0.5747-2.49036z" stroke="#2d0e1a" stroke-width="2" fill="#2d0e1a"/>
  <g stroke="#2d0e1a" stroke-linecap="round" stroke-width=".5" fill="none">
   <circle cy="162.376" transform="matrix(.770053 0 0 .835885 33.9775 20.989)" cx="129.403" r="1.62831"/>
   <circle cy="162.376" transform="matrix(.770053 0 0 .835885 37.0165 20.989)" cx="129.403" r="1.62831"/>
   <circle cy="162.376" transform="matrix(.770053 0 0 .835885 40.0555 20.989)" cx="129.403" r="1.62831"/>
   <circle cy="162.376" transform="matrix(.770053 0 0 .835885 43.0945 20.989)" cx="129.403" r="1.62831"/>
  </g>
  <path d="m134.081 150.169-0.5747 5.1723 8.81206 0.0639-0.447-1.08554c-5.01565-0.31928-4.19317-0.38313-5.93855-1.59639l0.5747-2.49036z" stroke="#2d0e1a" stroke-width="2" fill="#2d0e1a"/>
 </g>
</svg>
