<?xml version="1.0" encoding="UTF-8" standalone="no"?>
<svg xmlns="http://www.w3.org/2000/svg" xmlns:osb="http://www.openswatchbook.org/uri/2009/osb" height="25.3823" viewBox="0 0 23.5 23.795883" width="25.0667" version="1.1">
 <g transform="translate(-124.714 -145.648)">
  <rect stroke-linejoin="round" stroke-opacity=".392157" fill-opacity=".274510" height="20" width="20" stroke="#000000" stroke-linecap="round" y="148.444" x="127.211" stroke-width="2" fill="#ffffff"/>
  <g stroke-opacity=".392157" transform="matrix(1.2459 -.482843 -.0705846 1.76642 -21.3504 -55.997)" stroke="#000000" fill="none">
   <g>
    <g stroke-linecap="round">
     <circle stroke-linejoin="round" cx="130.726" cy="160.382" r="2.23591"/>
     <circle stroke-linejoin="round" cx="130.726" transform="translate(8.571 -.149068)" cy="160.382" r="2.23591"/>
     <path d="m130.652 160.382c2.01233-5.36619 2.01233-5.36619 2.01233-5.36619" stroke-width="0.6"/>
    </g>
    <path d="m131.993 156.655 3.18363 3.95012 2.68095-4.02465h-0.0837" stroke-width=".636142"/>
    <path d="m132.59 157.251h5.1426l1.56514 2.90668v0" stroke-linecap="round" stroke-width="0.6"/>
   </g>
   <path d="m136.982 156.208h1.58035" stroke-linecap="round" stroke-width=".789718px"/>
  </g>
  <rect stroke-linejoin="round" height="20" width="20" stroke="#09282b" stroke-linecap="round" y="146.648" x="125.714" stroke-width="2" fill="none"/>
  <g transform="matrix(1.2459 -.482843 -.0705846 1.76642 -22.8467 -57.7929)" stroke="#09282b" fill="none">
   <g>
    <g stroke-linecap="round">
     <circle stroke-linejoin="round" cx="130.726" cy="160.382" r="2.23591"/>
     <circle stroke-linejoin="round" cx="130.726" transform="translate(8.571 -.149068)" cy="160.382" r="2.23591"/>
     <path d="m130.652 160.382c2.01233-5.36619 2.01233-5.36619 2.01233-5.36619" stroke-width="0.6"/>
    </g>
    <path d="m131.993 156.655 3.18363 3.95012 2.68095-4.02465h-0.0837" stroke-width=".636142"/>
    <path d="m132.59 157.251h5.1426l1.56514 2.90668v0" stroke-linecap="round" stroke-width="0.6"/>
   </g>
   <path d="m136.982 156.208h1.58035" stroke-linecap="round" stroke-width=".789718px"/>
  </g>
 </g>
</svg>
