<?xml version="1.0" encoding="UTF-8" standalone="no"?>
<svg xmlns="http://www.w3.org/2000/svg" xmlns:osb="http://www.openswatchbook.org/uri/2009/osb" height="44.7382" viewBox="0 0 39.217945 41.942089" width="41.8325" version="1.1">
 <g transform="translate(-291.656 -532.607)">
  <g transform="translate(186.561 405.341)" fill="none">
   <g stroke-opacity=".392157" transform="matrix(1.2459 -.482843 -.0705846 1.76642 -21.3504 -55.997)" stroke="#000000">
    <g>
     <g stroke-linecap="round">
      <circle stroke-linejoin="round" cx="130.726" cy="160.382" r="2.23591"/>
      <circle stroke-linejoin="round" cx="130.726" transform="translate(8.571 -.149068)" cy="160.382" r="2.23591"/>
      <path d="m130.652 160.382c2.01233-5.36619 2.01233-5.36619 2.01233-5.36619" stroke-width="0.6"/>
     </g>
     <path d="m131.993 156.655 3.18363 3.95012 2.68095-4.02465h-0.0837" stroke-width=".636142"/>
     <path d="m132.59 157.251h5.1426l1.56514 2.90668v0" stroke-linecap="round" stroke-width="0.6"/>
    </g>
    <path d="m136.982 156.208h1.58035" stroke-linecap="round" stroke-width=".789718px"/>
   </g>
   <g transform="matrix(1.2459 -.482843 -.0705846 1.76642 -22.8467 -57.7929)" stroke="#09282b">
    <g>
     <g stroke-linecap="round">
      <circle stroke-linejoin="round" cx="130.726" cy="160.382" r="2.23591"/>
      <circle stroke-linejoin="round" cx="130.726" transform="translate(8.571 -.149068)" cy="160.382" r="2.23591"/>
      <path d="m130.652 160.382c2.01233-5.36619 2.01233-5.36619 2.01233-5.36619" stroke-width="0.6"/>
     </g>
     <path d="m131.993 156.655 3.18363 3.95012 2.68095-4.02465h-0.0837" stroke-width=".636142"/>
     <path d="m132.59 157.251h5.1426l1.56514 2.90668v0" stroke-linecap="round" stroke-width="0.6"/>
    </g>
    <path d="m136.982 156.208h1.58035" stroke-linecap="round" stroke-width=".789718px"/>
   </g>
  </g>
  <g transform="translate(183.649 387.412)" fill="none">
   <g stroke="#000000" stroke-opacity=".407080">
    <circle stroke-linejoin="round" stroke-width="2.5" cy="152.071" stroke-linecap="round" transform="matrix(1.23285 0 0 1.26316 -30.3378 -38.7072)" cx="137.993" r="1.22975"/>
    <path d="m136.396 161.134 4.91901 2.31045 3.35387-3.57747" stroke-width="1.9"/>
    <g stroke-linecap="round">
     <ellipse stroke-linejoin="round" rx="1.08069" cy="155.798" transform="matrix(.978712 .360743 -.346569 .940257 59.0914 -35.0084)" ry="4.43456" cx="130.615" stroke-width="2.5"/>
     <path d="m144.744 157.972c-1.34155 9.49681-1.41608 9.49681-1.41608 9.49681" stroke-width="1.48505"/>
     <path d="m138.38 158.852c-3.3186 7.2698-3.44625 7.56533-3.44625 7.56533" stroke-width="4.54898"/>
    </g>
   </g>
   <g stroke="#092b0b">
    <circle stroke-linejoin="round" stroke-width="2.5" cy="152.071" stroke-linecap="round" transform="matrix(1.23285 0 0 1.26316 -32.1322 -40.0559)" cx="137.993" r="1.22975"/>
    <path d="m134.602 159.785 4.91901 2.31045 3.35387-3.57747" stroke-width="1.9"/>
    <g stroke-linecap="round">
     <ellipse stroke-linejoin="round" rx="1.08069" cy="155.798" transform="matrix(.978712 .360743 -.346569 .940257 57.297 -36.3572)" ry="4.43456" cx="130.615" stroke-width="2.5"/>
     <path d="m142.949 156.65c-1.34155 9.49681-1.41608 9.49681-1.41608 9.49681" stroke-width="1.48505"/>
     <path d="m136.586 157.503c-3.3186 7.2698-3.44625 7.56533-3.44625 7.56533" stroke-width="4.54898"/>
    </g>
   </g>
  </g>
  <g transform="translate(166.401 384.769)" fill="none">
   <path stroke-linejoin="round" d="m126.002 157.21 6.26056-7.25754 2.73609 2.31129 3.599-3.67208 3.652 8.16474 2.90668-3.25078h0.2236" stroke="#060a1d" stroke-width="1.51072"/>
   <g transform="matrix(1.12832 -.390850 -.0639236 1.42988 -8.91417 -14.9572)" stroke="#060a1d">
    <g>
     <g stroke-linecap="round">
      <circle stroke-linejoin="round" cx="130.726" cy="160.382" r="2.23591"/>
      <circle stroke-linejoin="round" cx="130.726" transform="translate(8.571 -.149068)" cy="160.382" r="2.23591"/>
      <path d="m130.652 160.382c2.01233-5.36619 2.01233-5.36619 2.01233-5.36619" stroke-width="0.6"/>
     </g>
     <path d="m131.993 156.655 3.18363 3.95012 2.68095-4.02465h-0.0837" stroke-width=".636142"/>
     <path d="m132.59 157.251h5.1426l1.56514 2.90668v0" stroke-linecap="round" stroke-width="0.6"/>
    </g>
    <path d="m136.982 156.208h1.58035" stroke-linecap="round" stroke-width=".789718px"/>
   </g>
   <path stroke-linejoin="round" d="m127.577 158.948 6.26056-7.25754 2.73609 2.31129 3.599-3.67208 3.652 8.16474 2.90668-3.25078h0.2236" stroke-opacity=".392157" stroke="#000000" stroke-width="1.51072"/>
   <g stroke-opacity=".392157" transform="matrix(1.12832 -.390850 -.0639236 1.42988 -7.33916 -13.2197)" stroke="#000000">
    <g>
     <g stroke-linecap="round">
      <circle stroke-linejoin="round" cx="130.726" cy="160.382" r="2.23591"/>
      <circle stroke-linejoin="round" cx="130.726" transform="translate(8.571 -.149068)" cy="160.382" r="2.23591"/>
      <path d="m130.652 160.382c2.01233-5.36619 2.01233-5.36619 2.01233-5.36619" stroke-width="0.6"/>
     </g>
     <path d="m131.993 156.655 3.18363 3.95012 2.68095-4.02465h-0.0837" stroke-width=".636142"/>
     <path d="m132.59 157.251h5.1426l1.56514 2.90668v0" stroke-linecap="round" stroke-width="0.6"/>
    </g>
    <path d="m136.982 156.208h1.58035" stroke-linecap="round" stroke-width=".789718px"/>
   </g>
  </g>
  <g stroke-linejoin="round" transform="translate(169.61 401.999)">
   <g fill="none">
    <g stroke-opacity=".392157" stroke="#000000">
     <g stroke-linecap="round" stroke-width=".5">
      <circle cy="162.376" transform="matrix(.770053 0 0 .835885 30.5238 28.8354)" cx="129.403" r="1.62831"/>
      <circle cy="162.376" transform="matrix(.770053 0 0 .835885 33.5628 28.8354)" cx="129.403" r="1.62831"/>
      <circle cy="162.376" transform="matrix(.770053 0 0 .835885 36.6018 28.8354)" cx="129.403" r="1.62831"/>
      <circle cy="162.376" transform="matrix(.770053 0 0 .835885 39.6408 28.8354)" cx="129.403" r="1.62831"/>
     </g>
     <path d="m130.627 158.016-0.5747 5.1723 8.81206 0.0639-0.447-1.08554c-5.01565-0.31928-4.19317-0.38313-5.93855-1.59639l0.5747-2.49036z" stroke-width="2"/>
     <g stroke-linecap="round" stroke-width=".5">
      <circle cy="162.376" transform="matrix(.770053 0 0 .835885 35.4248 22.7903)" cx="129.403" r="1.62831"/>
      <circle cy="162.376" transform="matrix(.770053 0 0 .835885 38.4638 22.7903)" cx="129.403" r="1.62831"/>
      <circle cy="162.376" transform="matrix(.770053 0 0 .835885 41.5028 22.7903)" cx="129.403" r="1.62831"/>
      <circle cy="162.376" transform="matrix(.770053 0 0 .835885 44.5418 22.7903)" cx="129.403" r="1.62831"/>
     </g>
     <path d="m135.528 151.971-0.5747 5.1723 8.81206 0.0639-0.447-1.08554c-5.01565-0.31928-4.19317-0.38313-5.93855-1.59639l0.5747-2.49036z" stroke-width="2"/>
    </g>
    <g stroke="#2d0e1a" stroke-linecap="round" stroke-width=".5">
     <circle cy="162.376" transform="matrix(.770053 0 0 .835885 29.0765 27.0341)" cx="129.403" r="1.62831"/>
     <circle cy="162.376" transform="matrix(.770053 0 0 .835885 32.1155 27.0341)" cx="129.403" r="1.62831"/>
     <circle cy="162.376" transform="matrix(.770053 0 0 .835885 35.1545 27.0341)" cx="129.403" r="1.62831"/>
     <circle cy="162.376" transform="matrix(.770053 0 0 .835885 38.1935 27.0341)" cx="129.403" r="1.62831"/>
    </g>
   </g>
   <path d="m129.18 156.214-0.5747 5.1723 8.81206 0.0639-0.447-1.08554c-5.01565-0.31928-4.19317-0.38313-5.93855-1.59639l0.5747-2.49036z" stroke="#2d0e1a" stroke-width="2" fill="#2d0e1a"/>
   <g stroke="#2d0e1a" stroke-linecap="round" stroke-width=".5" fill="none">
    <circle cy="162.376" transform="matrix(.770053 0 0 .835885 33.9775 20.989)" cx="129.403" r="1.62831"/>
    <circle cy="162.376" transform="matrix(.770053 0 0 .835885 37.0165 20.989)" cx="129.403" r="1.62831"/>
    <circle cy="162.376" transform="matrix(.770053 0 0 .835885 40.0555 20.989)" cx="129.403" r="1.62831"/>
    <circle cy="162.376" transform="matrix(.770053 0 0 .835885 43.0945 20.989)" cx="129.403" r="1.62831"/>
   </g>
   <path d="m134.081 150.169-0.5747 5.1723 8.81206 0.0639-0.447-1.08554c-5.01565-0.31928-4.19317-0.38313-5.93855-1.59639l0.5747-2.49036z" stroke="#2d0e1a" stroke-width="2" fill="#2d0e1a"/>
  </g>
 </g>
</svg>
