<?xml version="1.0" encoding="UTF-8" standalone="no"?>
<!-- Created with Inkscape (http://www.inkscape.org/) -->

<svg
   xmlns:dc="http://purl.org/dc/elements/1.1/"
   xmlns:cc="http://creativecommons.org/ns#"
   xmlns:rdf="http://www.w3.org/1999/02/22-rdf-syntax-ns#"
   xmlns:svg="http://www.w3.org/2000/svg"
   xmlns="http://www.w3.org/2000/svg"
   xmlns:sodipodi="http://sodipodi.sourceforge.net/DTD/sodipodi-0.dtd"
   xmlns:inkscape="http://www.inkscape.org/namespaces/inkscape"
   width="100"
   height="100"
   id="svg4378"
   version="1.1"
   inkscape:version="0.48.4 r9939"
   sodipodi:docname="bfk100.svg">
  <defs
     id="defs4380" />
  <sodipodi:namedview
     id="base"
     pagecolor="#ffffff"
     bordercolor="#666666"
     borderopacity="1.0"
     inkscape:pageopacity="0.0"
     inkscape:pageshadow="2"
     inkscape:zoom="7.63"
     inkscape:cx="50"
     inkscape:cy="50"
     inkscape:document-units="px"
     inkscape:current-layer="layer1"
     showgrid="false"
     borderlayer="true"
     inkscape:window-width="1232"
     inkscape:window-height="939"
     inkscape:window-x="48"
     inkscape:window-y="21"
     inkscape:window-maximized="1" />
  <metadata
     id="metadata4383">
    <rdf:RDF>
      <cc:Work
         rdf:about="">
        <dc:format>image/svg+xml</dc:format>
        <dc:type
           rdf:resource="http://purl.org/dc/dcmitype/StillImage" />
        <dc:title />
      </cc:Work>
    </rdf:RDF>
  </metadata>
  <g
     inkscape:label="1. réteg"
     inkscape:groupmode="layer"
     id="layer1"
     transform="translate(0,-952.36218)"
     style="opacity:1;display:inline">
    <rect
       style="fill:#ffffff;fill-opacity:1;stroke:none"
       id="rect3766"
       width="100"
       height="100"
       x="0"
       y="952.36218" />
    <rect
       style="fill:#ffffff;fill-opacity:1;stroke:none;opacity:0"
       id="rect3764"
       width="100"
       height="100"
       x="0"
       y="952.36218" />
    <path
       style="fill:#008cff;fill-opacity:1"
       d="m 10.993349,1032.6528 c -0.06055,-0.1 -0.171138,-3.3126 -0.24573,-7.14 l -0.135625,-6.9611 39.291852,0.057 39.291847,0.057 -0.07324,5.4605 c -0.0403,3.0068 -0.130742,6.1717 -0.201088,7.039 l -0.127901,1.5755 -38.845062,0.057 c -22.411298,0.033 -38.891622,-0.028 -38.955149,-0.1255 z m -0.790841,-23.7007 c -0.05484,-0.1925 -0.128875,-7.3089 -0.164516,-15.81251 -0.073549,-17.5512 -0.2296075,-16.08753 1.656637,-15.53843 2.445187,0.71189 3.798806,2.42444 6.102289,7.7202 0.808616,1.85916 1.766075,3.90441 2.127675,4.54514 1.015591,1.79945 2.454993,3.24727 3.969793,3.99309 1.180458,0.58108 1.508437,0.65116 3.05062,0.65093 1.520094,-1.8e-4 1.891784,-0.077 3.090244,-0.63819 2.573563,-1.20493 3.914339,-2.99469 6.811592,-9.09293 2.939407,-6.1869 3.828622,-7.68169 5.70007,-9.5823 1.756997,-1.78452 2.979728,-2.51952 4.97268,-2.9895 3.383468,-0.79775 6.814919,0.0703 9.319424,2.36034 2.053645,1.87704 3.473572,4.13986 6.025024,9.6019 2.150164,4.60316 3.17555,6.29784 4.816938,7.96148 1.776417,1.80055 3.033797,2.34632 5.428944,2.35635 2.151243,0.01 3.570931,-0.54216 4.999268,-1.941 1.340308,-1.31262 2.218149,-2.81818 3.871648,-6.64002 0.724272,-1.67413 1.640898,-3.66144 2.036923,-4.41663 1.29139,-2.46212 3.170101,-3.93221 5.135809,-4.01878 L 90,977.43244 89.92355,990.6027 c -0.04221,7.24321 -0.132598,14.3912 -0.201071,15.8839 l -0.12452,2.7156 -39.647826,0.057 c -37.634079,0.054 -39.652871,0.037 -39.747521,-0.3004 z"
       id="path4365"
       inkscape:connector-curvature="0"
       sodipodi:nodetypes="sscccsscsssssssscsssssssssssscsscss" />
    <rect
       style="opacity:0;fill:#0000ff;fill-opacity:1;fill-rule:nonzero;stroke:none"
       id="rect4901"
       width="119.0563"
       height="100.02619"
       x="0.47182176"
       y="-0.026212305"
       transform="translate(0,952.36218)" />
    <rect
       style="opacity:0;fill:#00d3ff;fill-opacity:1;fill-rule:nonzero;stroke:none"
       id="rect4911"
       width="11.009174"
       height="12.581914"
       x="9.7509832"
       y="3.9056356"
       transform="translate(0,952.36218)" />
    <rect
       style="opacity:0;fill:#00d3ff;fill-opacity:1;fill-rule:nonzero;stroke:none"
       id="rect4913"
       width="16.356487"
       height="7.7064219"
       x="23.433813"
       y="7.9947577"
       transform="translate(0,952.36218)" />
    <rect
       style="opacity:0;fill:#00d3ff;fill-opacity:1;fill-rule:nonzero;stroke:none"
       id="rect4915"
       width="21.7038"
       height="92.791611"
       x="8.3355179"
       y="5.6356487"
       transform="translate(0,952.36218)" />
    <rect
       style="opacity:0;fill:#00d3ff;fill-opacity:1;fill-rule:nonzero;stroke:none"
       id="rect4920"
       width="120"
       height="100"
       x="-0.15727392"
       y="-0.02621232"
       transform="translate(0,952.36218)" />
    <rect
       style="opacity:0;fill:#00d3ff;fill-opacity:1;fill-rule:nonzero;stroke:#000000;stroke-width:12.60000038000000089;stroke-miterlimit:4;stroke-opacity:1;stroke-dasharray:none"
       id="rect4922"
       width="119.52818"
       height="100.34076"
       x="0.15727392"
       y="-0.34076017"
       transform="translate(0,952.36218)" />
    <rect
       style="opacity:0;fill:#00d3ff;fill-opacity:1;fill-rule:nonzero;stroke:#000000;stroke-width:12.60000038000000089;stroke-miterlimit:4;stroke-opacity:1;stroke-dasharray:none"
       id="rect4924"
       width="239.36925"
       height="199.00131"
       x="-119.68462"
       y="-99.316689"
       transform="translate(0,952.36218)" />
    <rect
       style="opacity:0;fill:#00d3ff;fill-opacity:1;fill-rule:nonzero;stroke:#000000;stroke-width:12.60000038000000089;stroke-miterlimit:4;stroke-opacity:1;stroke-dasharray:none"
       id="rect4926"
       width="24.441525"
       height="18.291721"
       x="6.7805519"
       y="3.6530881"
       transform="translate(0,952.36218)" />
    <rect
       style="opacity:0;fill:#00d3ff;fill-opacity:1;fill-rule:nonzero;stroke:#000000;stroke-width:12.60000038000000089;stroke-miterlimit:4;stroke-opacity:1;stroke-dasharray:none"
       id="rect4928"
       width="25.072273"
       height="19.553219"
       x="63.70565"
       y="7.7529569"
       transform="translate(0,952.36218)" />
    <rect
       style="opacity:0;fill:#00d3ff;fill-opacity:1;fill-rule:nonzero;stroke:#000000;stroke-width:12.60000038000000089;stroke-miterlimit:4;stroke-opacity:1;stroke-dasharray:none"
       id="rect4930"
       width="120"
       height="100"
       x="0.15768725"
       y="0.3416557"
       transform="translate(0,952.36218)" />
    <rect
       style="opacity:0;fill:#008cff;fill-opacity:1;fill-rule:nonzero;stroke:#000000;stroke-width:12.60000038000000089;stroke-miterlimit:4;stroke-opacity:1;stroke-dasharray:none"
       id="rect4970"
       width="120.63075"
       height="100.13141"
       x="0"
       y="0.18396847"
       transform="translate(0,952.36218)" />
  </g>
</svg>
