<?xml version="1.0" encoding="UTF-8" standalone="no"?>
<!-- Created with Inkscape (http://www.inkscape.org/) -->

<svg
   xmlns:dc="http://purl.org/dc/elements/1.1/"
   xmlns:cc="http://creativecommons.org/ns#"
   xmlns:rdf="http://www.w3.org/1999/02/22-rdf-syntax-ns#"
   xmlns:svg="http://www.w3.org/2000/svg"
   xmlns="http://www.w3.org/2000/svg"
   xmlns:sodipodi="http://sodipodi.sourceforge.net/DTD/sodipodi-0.dtd"
   xmlns:inkscape="http://www.inkscape.org/namespaces/inkscape"
   width="100"
   height="100"
   id="svg2"
   version="1.1"
   inkscape:version="0.48.4 r9939"
   sodipodi:docname="bor.svg">
  <defs
     id="defs4" />
  <sodipodi:namedview
     id="base"
     pagecolor="#ffffff"
     bordercolor="#666666"
     borderopacity="1.0"
     inkscape:pageopacity="0.0"
     inkscape:pageshadow="2"
     inkscape:zoom="7.56"
     inkscape:cx="60"
     inkscape:cy="60.582011"
     inkscape:document-units="px"
     inkscape:current-layer="layer1"
     showgrid="false"
     inkscape:window-width="1232"
     inkscape:window-height="939"
     inkscape:window-x="48"
     inkscape:window-y="21"
     inkscape:window-maximized="1"
     borderlayer="true"
     inkscape:showpageshadow="false" />
  <metadata
     id="metadata7">
    <rdf:RDF>
      <cc:Work
         rdf:about="">
        <dc:format>image/svg+xml</dc:format>
        <dc:type
           rdf:resource="http://purl.org/dc/dcmitype/StillImage" />
        <dc:title></dc:title>
      </cc:Work>
    </rdf:RDF>
  </metadata>
  <g
     inkscape:label="1. réteg"
     inkscape:groupmode="layer"
     id="layer1"
     transform="translate(0,-952.36218)">
    <rect
       style="opacity:0.83999999;fill:#ffffff;fill-opacity:1;stroke:none"
       id="rect2985"
       width="100"
       height="100"
       x="0"
       y="952.36218" />
    <path
       style="fill:#cccccc;fill-opacity:1"
       d="m 23.724262,1033.2038 c 0,-6.4712 0.50775,-6.8511 9.13937,-6.8511 l 9.139396,0 0,-11.4224 c 0,-8.6241 -0.839155,-11.4266 -3.420724,-11.4266 -3.781516,0 -20.894852,-13.86877 -19.681188,-14.95009 0.02272,0.6053 -3.112489,-1.90375 -4.20859,-4.9417 C 13.816608,981.18422 12.3,975.03413 12.3,971.35343 l 0,-6.69126 37.699972,0 37.700028,0 0,6.69126 c 0,3.6807 -0.699694,8.7141 -1.995794,11.5971 -0.766925,2.22173 -1.635673,4.20764 -3.414907,5.73536 -1.167257,3.06545 -17.090143,14.81781 -20.87167,14.81781 -2.581568,0 -3.420713,2.8025 -3.420713,11.4266 l 0,11.4224 9.13939,0 c 8.631616,0 9.13937,0.3799 9.13937,6.8511 l 0,6.8584 -26.275704,0 -26.27571,0 z"
       id="path4043"
       inkscape:connector-curvature="0"
       sodipodi:nodetypes="sscsscsscccsccsscsscccs" />
  </g>
</svg>
