<?xml version="1.0" encoding="UTF-8" standalone="no"?>
<!-- Created with Inkscape (http://www.inkscape.org/) -->

<svg
   xmlns:dc="http://purl.org/dc/elements/1.1/"
   xmlns:cc="http://creativecommons.org/ns#"
   xmlns:rdf="http://www.w3.org/1999/02/22-rdf-syntax-ns#"
   xmlns:svg="http://www.w3.org/2000/svg"
   xmlns="http://www.w3.org/2000/svg"
   xmlns:sodipodi="http://sodipodi.sourceforge.net/DTD/sodipodi-0.dtd"
   xmlns:inkscape="http://www.inkscape.org/namespaces/inkscape"
   id="svg2985"
   version="1.1"
   inkscape:version="0.48.4 r9939"
   width="100"
   height="100"
   sodipodi:docname="karsztb.svg">
  <metadata
     id="metadata2991">
    <rdf:RDF>
      <cc:Work
         rdf:about="">
        <dc:format>image/svg+xml</dc:format>
        <dc:type
           rdf:resource="http://purl.org/dc/dcmitype/StillImage" />
        <dc:title></dc:title>
      </cc:Work>
    </rdf:RDF>
  </metadata>
  <defs
     id="defs2989" />
  <sodipodi:namedview
     pagecolor="#ffffff"
     bordercolor="#666666"
     borderopacity="1"
     objecttolerance="10"
     gridtolerance="10"
     guidetolerance="10"
     inkscape:pageopacity="0"
     inkscape:pageshadow="2"
     inkscape:window-width="1232"
     inkscape:window-height="939"
     id="namedview2987"
     showgrid="false"
     borderlayer="true"
     inkscape:showpageshadow="false"
     inkscape:zoom="7.64"
     inkscape:cx="50"
     inkscape:cy="50"
     inkscape:window-x="48"
     inkscape:window-y="21"
     inkscape:window-maximized="1"
     inkscape:current-layer="svg2985" />
  <rect
     style="fill:#ffffff;fill-opacity:1;stroke:none"
     id="rect3767"
     width="100"
     height="100"
     x="0"
     y="6.057546e-15" />
  <path
     style="fill:#008cff;fill-opacity:1"
     d="m 7.5515003,79.596598 c -0.04762,-0.124514 -0.065594,-2.967579 -0.039523,-6.318017 l 0.047112,-6.091559 6.2720267,-0.08957 6.272,-0.08937 0.110346,-9.587179 c 0.06145,-5.31736 0.196229,-10.145841 0.303145,-10.841563 0.640113,-4.165077 1.856602,-7.987728 3.420119,-10.747236 1.007702,-1.778518 3.128451,-4.753511 3.388588,-4.753511 0.0704,0 2.133952,2.007453 4.58606,4.46101 l 4.458354,4.461003 -0.64371,1.059672 c -0.856105,1.409293 -1.672431,3.253067 -1.993373,4.502326 -0.692639,2.696091 -0.709112,3.07823 -0.808562,18.75748 l -0.09776,15.41109 -12.593971,0.04623 C 10.217546,79.813686 7.6205822,79.776782 7.5514829,79.596699 z M 51.911175,79.395534 c 0,-0.317236 3.808341,-18.859951 4.393654,-21.392478 0.154334,-0.667889 0.384,-0.458051 0.588454,0.537584 0.106257,0.517429 1.130415,5.405549 2.275914,10.862458 1.14548,5.456905 2.039889,10.033176 1.98755,10.169578 -0.07778,0.202138 -0.940031,0.247898 -4.670351,0.247898 l -4.575221,0 z m 15.352692,0.30675 c -0.0662,-0.06617 -0.122164,-6.699486 -0.123986,-14.740321 -0.003,-11.845765 -0.0531,-14.969019 -0.264972,-16.460725 -0.471495,-3.316793 -1.151218,-5.351175 -2.458206,-7.357177 l -0.752225,-1.154574 4.510757,-4.45556 c 2.480949,-2.45058 4.588183,-4.455583 4.682799,-4.455583 0.243291,0 2.293538,3.002839 3.400188,4.980014 1.239719,2.214914 2.380102,5.338879 2.990069,8.191124 l 0.498195,2.329619 0.104774,10.214358 0.104737,10.21437 6.272041,0.08951 6.271962,0.08942 0,6.271971 0,6.271994 -12.557722,0.04608 c -6.906788,0.0253 -12.612063,-0.01001 -12.678411,-0.07449 z M 43.786058,54.329474 c -0.05512,-0.221791 -0.915864,-4.314249 -1.913114,-9.094378 l -1.81314,-8.691175 -4.602311,-4.625594 -4.602362,-4.625628 0.627198,-0.538973 c 2.084162,-1.790985 5.756924,-3.844293 8.707533,-4.868057 7.773803,-2.697257 15.90095,-2.185477 23.124964,1.4562 1.547712,0.780211 4.278247,2.546661 5.261945,3.404114 l 0.627223,0.546678 -4.478671,4.491233 c -2.463268,2.470183 -4.545367,4.491233 -4.626909,4.491233 -0.08132,0 -0.511603,-0.249983 -0.955652,-0.555512 -1.162782,-0.800005 -3.169808,-1.689131 -4.817742,-2.134326 -1.664705,-0.44969 -5.335452,-0.703468 -5.533799,-0.382558 -0.0684,0.110524 -1.046996,4.61694 -2.17489,10.014238 -2.415415,11.558429 -2.405802,11.515687 -2.588417,11.515687 -0.07827,0 -0.186875,-0.181427 -0.241856,-0.403182 z"
     id="path2997"
     inkscape:connector-curvature="0"
     sodipodi:nodetypes="sscccssssscssscsssssssscssssscsssscccccccsssscccsssscssssssss" />
</svg>
