<?xml version="1.0" encoding="UTF-8" standalone="no"?>
<!-- Created with Inkscape (http://www.inkscape.org/) -->

<svg
   xmlns:dc="http://purl.org/dc/elements/1.1/"
   xmlns:cc="http://creativecommons.org/ns#"
   xmlns:rdf="http://www.w3.org/1999/02/22-rdf-syntax-ns#"
   xmlns:svg="http://www.w3.org/2000/svg"
   xmlns="http://www.w3.org/2000/svg"
   xmlns:sodipodi="http://sodipodi.sourceforge.net/DTD/sodipodi-0.dtd"
   xmlns:inkscape="http://www.inkscape.org/namespaces/inkscape"
   width="100"
   height="100"
   id="svg2"
   version="1.1"
   inkscape:version="0.48.4 r9939"
   sodipodi:docname="mtb.svg">
  <defs
     id="defs4">
    <inkscape:perspective
       sodipodi:type="inkscape:persp3d"
       inkscape:vp_x="0 : 526.18109 : 1"
       inkscape:vp_y="0 : 1000 : 0"
       inkscape:vp_z="744.09448 : 526.18109 : 1"
       inkscape:persp3d-origin="372.04724 : 350.78739 : 1"
       id="perspective10" />
    <inkscape:perspective
       id="perspective2884"
       inkscape:persp3d-origin="0.5 : 0.33333333 : 1"
       inkscape:vp_z="1 : 0.5 : 1"
       inkscape:vp_y="0 : 1000 : 0"
       inkscape:vp_x="0 : 0.5 : 1"
       sodipodi:type="inkscape:persp3d" />
  </defs>
  <sodipodi:namedview
     id="base"
     pagecolor="#ffffff"
     bordercolor="#666666"
     borderopacity="1.0"
     inkscape:pageopacity="0.0"
     inkscape:pageshadow="2"
     inkscape:zoom="7.13"
     inkscape:cx="60"
     inkscape:cy="50"
     inkscape:document-units="px"
     inkscape:current-layer="layer1"
     showgrid="false"
     inkscape:showpageshadow="false"
     showguides="true"
     inkscape:guide-bbox="true"
     inkscape:window-width="1232"
     inkscape:window-height="939"
     inkscape:window-x="48"
     inkscape:window-y="21"
     inkscape:window-maximized="1"
     borderlayer="true" />
  <metadata
     id="metadata7">
    <rdf:RDF>
      <cc:Work
         rdf:about="">
        <dc:format>image/svg+xml</dc:format>
        <dc:type
           rdf:resource="http://purl.org/dc/dcmitype/StillImage" />
        <dc:title></dc:title>
      </cc:Work>
    </rdf:RDF>
  </metadata>
  <g
     inkscape:label="1. réteg"
     inkscape:groupmode="layer"
     id="layer1"
     transform="translate(0,-952.36218)">
    <rect
       style="color:#cccccc;fill:#ffffff;fill-opacity:1;fill-rule:nonzero;stroke:none;stroke-width:1px;marker:none;visibility:visible;display:inline;overflow:visible;enable-background:accumulate"
       id="rect3674"
       width="100"
       height="100"
       x="0"
       y="952.36218" />
    <path
       style="fill:#cccccc;fill-opacity:1"
       d="m 20.298704,1040.8789 c -2.773803,-0.3028 -6.5622,-1.5919 -7.639326,-2.5985 -0.228769,-0.2134 -0.452765,-0.3879 -0.497775,-0.3879 -0.209764,0 -1.918103,-1.4417 -2.4674546,-2.0826 -0.33811,-0.3949 -0.901897,-1.0169 -1.252838,-1.3835 -0.350951,-0.367 -0.720059,-0.9145 -0.820249,-1.2176 -0.100196,-0.3043 -0.4123258,-0.894 -0.6936138,-1.3133 -0.281288,-0.4179 -0.5574,-0.9693 -0.613581,-1.2249 -0.05619,-0.2557 -0.160319,-0.4653 -0.231415,-0.4653 -0.07109,0 -0.17803,-0.2242 -0.237631,-0.4992 -0.0596,-0.2746 -0.163801,-0.535 -0.231557,-0.5791 -0.06776,-0.051 -0.153312,-0.3545 -0.190122,-0.6915 -0.03681,-0.3376 -0.105426,-0.7163 -0.152481,-0.8436 -0.305322,-0.8236 -0.374766,-5.4952 -0.102818,-6.9174 0.08889,-0.4652 0.201414,-1.0531 0.250047,-1.3076 0.04864,-0.2532 0.144795,-0.5325 0.213695,-0.6195 0.0689,-0.088 0.157858,-0.3377 0.197684,-0.5571 0.03983,-0.2205 0.175079,-0.5993 0.300563,-0.8415 0.125486,-0.2424 0.248847,-0.5101 0.274138,-0.5944 0.0253,-0.088 0.274518,-0.5584 0.553835,-1.0535 0.279318,-0.4934 0.507848,-0.9531 0.507848,-1.0204 0,-0.075 0.1997368,-0.3371 0.4438638,-0.599 0.244127,-0.2608 0.489545,-0.6564 0.545388,-0.8792 0.05589,-0.2233 0.143016,-0.3636 0.193726,-0.3133 0.101481,0.1022 0.661288,-0.4854 0.661288,-0.6939 0,-0.08 0.09983,-0.1296 0.221831,-0.1296 0.260558,0 0.7238086,-0.6069 0.6073206,-0.7958 -0.04405,-0.075 0.04528,-0.1761 0.198514,-0.2329 0.153288,-0.064 0.417022,-0.2593 0.586074,-0.4496 0.169061,-0.19 0.491016,-0.3914 0.715452,-0.4461 0.224443,-0.064 0.570246,-0.275 0.768446,-0.4887 0.321267,-0.3458 0.915178,-0.6903 1.249697,-0.7263 0.06654,-0.01 0.170219,-0.089 0.230531,-0.1787 0.121147,-0.1821 1.071727,-0.6796 1.30114,-0.6796 0.07989,0 0.363206,-0.098 0.629573,-0.2165 0.266359,-0.1181 0.691766,-0.2677 0.945353,-0.3309 0.253587,-0.072 0.53023,-0.1379 0.614759,-0.1666 0.08459,-0.034 0.499489,-0.1191 0.922138,-0.2001 0.422645,-0.087 0.941346,-0.1873 1.152665,-0.2339 2.133659,-0.4789 4.504352,-0.377 7.223394,0.3096 0.126793,0.037 0.677546,0.1668 1.223897,0.3005 0.546349,0.134 1.099634,0.3347 1.229513,0.4488 0.129885,0.114 0.409056,0.2579 0.620377,0.3195 0.211316,0.072 0.51251,0.2267 0.66931,0.3641 0.156805,0.1386 0.295124,0.226 0.307386,0.1947 0.04259,-0.107 1.174948,0.6261 1.174948,0.7608 0,0.079 0.266331,0.2712 0.591839,0.4372 0.538459,0.2748 0.944084,0.6448 2.562804,2.3383 0.293646,0.3075 0.533902,0.6354 0.533902,0.7301 0,0.093 0.0864,0.172 0.192111,0.1725 0.10566,6e-4 0.269259,0.1561 0.363549,0.3461 0.0943,0.1899 0.491958,0.9424 0.883712,1.6721 0.391749,0.7286 0.712279,1.4257 0.712279,1.5461 0,0.1211 0.141017,0.3709 0.313366,0.5566 0.172353,0.1849 0.277064,0.3357 0.232687,0.3357 -0.04428,0 0.04978,0.3635 0.209324,0.807 0.577167,1.6072 0.712639,2.7528 0.677184,5.7275 -0.02837,2.3789 -0.272694,3.6271 -1.053976,5.3802 -0.150679,0.3381 -0.284502,0.6499 -0.297386,0.6916 -0.149187,0.4896 -1.399543,2.7993 -1.626364,3.006 -0.164508,0.1486 -0.299107,0.3516 -0.299107,0.4515 0,0.1 -0.234055,0.4173 -0.520115,0.7063 -0.286065,0.2891 -0.706207,0.8016 -0.933654,1.1395 -0.227449,0.3394 -0.425643,0.5828 -0.440446,0.5411 -0.01474,-0.047 -0.251277,0.1266 -0.525519,0.3712 -0.274234,0.2448 -0.663934,0.5546 -0.866001,0.6894 -0.202055,0.1338 -0.73844,0.5209 -1.19196,0.8593 -0.997896,0.7454 -1.847211,1.2075 -2.668855,1.452 -0.338115,0.1008 -0.753074,0.2443 -0.922133,0.3201 -0.716208,0.3219 -2.386461,0.7579 -3.458006,0.9035 -1.940736,0.2637 -2.323213,0.2718 -4.072768,0.083 z m 55.866033,-0.5386 c -2.054741,-0.301 -4.326423,-0.8933 -5.320959,-1.3852 -0.581427,-0.2882 -1.107952,-0.5937 -1.170055,-0.6786 -0.06207,-0.09 -0.113978,-0.093 -0.115272,-0.025 -0.0014,0.079 -0.307927,-0.1172 -0.6814,-0.4236 -0.373472,-0.3057 -0.751447,-0.5559 -0.83994,-0.5559 -0.08851,0 -0.397207,-0.2079 -0.686029,-0.4609 -0.288818,-0.2547 -0.602442,-0.4618 -0.696946,-0.4618 -0.09453,0 -0.171822,-0.07 -0.171822,-0.1371 0,-0.08 -0.585524,-0.7389 -1.301173,-1.476 -0.715637,-0.7373 -1.346544,-1.4838 -1.402004,-1.658 -0.05551,-0.1753 -0.162819,-0.3923 -0.238572,-0.4832 -0.632897,-0.761 -0.746795,-0.9285 -0.746795,-1.1006 0,-0.1081 -0.09139,-0.2879 -0.203087,-0.3995 -0.111702,-0.1123 -0.223724,-0.2726 -0.248946,-0.3567 -0.09452,-0.3165 -0.343944,-0.9337 -0.570718,-1.4117 -0.128945,-0.272 -0.189561,-0.5673 -0.134694,-0.6561 0.05489,-0.091 0.03928,-0.1613 -0.03479,-0.1613 -0.350219,0 -0.809928,-4.1978 -0.698613,-6.3801 0.07569,-1.4827 0.613358,-4.438 0.82039,-4.5093 0.08168,-0.034 0.148334,-0.1851 0.148334,-0.3481 0,-0.1627 0.06422,-0.4172 0.142678,-0.5637 0.07844,-0.1462 0.292123,-0.595 0.474776,-0.9972 0.182656,-0.4009 0.39509,-0.7305 0.472078,-0.7305 0.07695,0 0.13998,-0.1335 0.13998,-0.298 0,-0.1648 0.143383,-0.3996 0.318616,-0.5225 0.175239,-0.1222 0.334182,-0.3166 0.353191,-0.4312 0.01904,-0.1149 0.111602,-0.3466 0.205749,-0.5157 0.216906,-0.3898 3.221562,-3.4597 3.386056,-3.4597 0.06743,0 0.536181,-0.3096 1.041696,-0.6896 0.505508,-0.3794 1.04014,-0.6905 1.188067,-0.6913 0.14792,0 0.268951,-0.091 0.268951,-0.2045 0,-0.1965 1.616396,-0.819 1.915241,-0.7382 0.08135,0.026 0.21962,-0.067 0.307379,-0.1767 0.08773,-0.119 0.263302,-0.2211 0.390096,-0.2279 0.126793,-0.01 0.714656,-0.1259 1.30636,-0.2647 3.929891,-0.9248 6.465513,-0.7763 10.604552,0.6224 0.676228,0.2277 1.413098,0.5441 1.637479,0.7015 0.224365,0.1569 0.483685,0.2866 0.576325,0.2866 0.09262,0 0.16837,0.066 0.16837,0.1342 0,0.079 0.201641,0.2324 0.448141,0.3508 0.872876,0.4239 3.066712,2.4208 4.166252,3.7942 0.29383,0.3666 0.60336,0.7502 0.68793,0.8521 0.084,0.1012 0.2279,0.3191 0.31867,0.4846 0.0907,0.1662 0.27789,0.51 0.41594,0.7633 0.46305,0.851 1.04834,2.2701 1.35808,3.2909 0.16897,0.5578 0.37416,1.2315 0.45603,1.4972 0.28511,0.925 0.42492,2.6043 0.36986,4.4398 -0.0615,2.0533 -0.53698,4.186 -1.30194,5.8375 -0.23493,0.5077 -0.46757,1.095 -0.51711,1.3072 -0.11481,0.4892 -0.8618,1.634 -1.96764,3.0121 -0.91238,1.1383 -3.0392,3.1374 -3.337335,3.1374 -0.09605,0 -0.174723,0.067 -0.174723,0.1287 0,0.08 -0.155622,0.2078 -0.345801,0.3042 -0.190208,0.097 -0.622462,0.3475 -0.960564,0.5586 -1.787341,1.1155 -3.999325,1.807 -6.685483,2.0915 -1.50252,0.1606 -2.343873,0.1559 -3.534846,-0.024 z m -20.978582,-11.4148 c -0.507173,-0.2506 -1.012503,-0.5841 -1.122961,-0.7405 -0.110454,-0.1582 -0.290385,-0.2852 -0.39985,-0.2852 -0.109466,0 -0.409545,-0.2018 -0.666846,-0.4471 -0.257303,-0.2468 -0.598808,-0.5182 -0.758902,-0.6038 -0.160095,-0.092 -0.39197,-0.352 -0.515279,-0.5903 -0.123311,-0.2386 -0.312219,-0.491 -0.419797,-0.559 -0.107573,-0.076 -0.155476,-0.1907 -0.106447,-0.2692 0.04906,-0.086 0.0095,-0.1442 -0.0878,-0.1442 -0.23957,0 -3.068629,-2.9553 -3.068629,-3.2061 0,-0.074 -0.363086,-0.501 -0.80687,-0.9637 -1.153959,-1.2031 -2.165342,-2.4101 -2.343422,-2.7981 -0.225999,-0.4924 -0.48958,-0.7971 -1.806183,-2.0852 -0.6551,-0.6417 -1.19109,-1.2871 -1.19109,-1.4376 0,-0.1487 -0.05833,-0.271 -0.129489,-0.271 -0.07118,0 -0.261411,-0.2592 -0.422647,-0.5758 -0.161239,-0.3181 -0.413353,-0.7003 -0.560252,-0.8497 -0.146903,-0.1505 -0.304483,-0.463 -0.350176,-0.6918 -0.04576,-0.2309 -0.155089,-0.6266 -0.243098,-0.8799 -0.174343,-0.5029 -0.20619,-0.599 -0.371274,-1.1145 -0.0608,-0.1906 -0.154371,-0.3458 -0.20791,-0.3458 -0.178465,0 -0.01647,-1.9708 0.204502,-2.4888 0.119789,-0.2795 0.38108,-0.6824 0.580646,-0.894 0.19957,-0.2108 0.408992,-0.5051 0.465385,-0.6524 0.05642,-0.1486 0.191149,-0.2697 0.299464,-0.2708 0.108313,0 0.43142,-0.2438 0.718005,-0.5378 0.286596,-0.2959 0.583545,-0.5369 0.659889,-0.5369 0.07639,0 0.313705,-0.1628 0.527462,-0.3604 0.213758,-0.1982 0.95421,-0.6944 1.645453,-1.1021 0.691244,-0.4083 1.498863,-0.8978 1.794713,-1.0894 1.796538,-1.1618 7.47106,-4.51993 7.638024,-4.51993 0.11007,0 0.200126,-0.073 0.200126,-0.1537 0,-0.083 0.103742,-0.1535 0.23053,-0.1535 0.126799,0 0.363091,-0.1332 0.525107,-0.2947 0.162012,-0.1619 0.326496,-0.2629 0.365506,-0.2242 0.03905,0.042 0.28684,-0.1446 0.550719,-0.4087 0.36894,-0.3689 0.479785,-0.6146 0.479785,-1.0639 0,-0.3324 -0.09961,-0.6674 -0.230531,-0.7763 -0.126797,-0.1046 -0.231468,-0.2694 -0.232613,-0.3647 -0.0012,-0.097 -0.325964,-0.4498 -0.721825,-0.78792 -0.395859,-0.33821 -1.017536,-0.89725 -1.381497,-1.24227 -0.363961,-0.34503 -0.691372,-0.5977 -0.727573,-0.56149 -0.03624,0.0369 -0.156412,-0.079 -0.267129,-0.25668 -0.11072,-0.17731 -0.281465,-0.32241 -0.379426,-0.32241 -0.09796,0 -0.537825,-0.24211 -0.977454,-0.53803 -0.43964,-0.29588 -0.850829,-0.53803 -0.913763,-0.53803 -0.06293,0 -0.239604,-0.13842 -0.392599,-0.30748 -0.152998,-0.16906 -0.33602,-0.30747 -0.406709,-0.30747 -0.109352,0 -1.166296,-0.73272 -1.776873,-1.23186 -0.102096,-0.0828 -0.262323,-0.15169 -0.356062,-0.15169 -0.09376,0 -0.397108,-0.173 -0.674171,-0.38433 -0.277056,-0.21141 -0.545538,-0.38437 -0.59662,-0.38437 -0.174443,0 -4.641502,-2.9846 -4.99526,-3.33759 -0.711729,-0.71002 -0.946503,-0.54665 -3.592364,2.49964 -0.732834,0.84385 -1.804819,1.9784 -2.382181,2.52129 -0.577361,0.54299 -1.411954,1.32657 -1.854647,1.74141 -0.952085,0.89215 -2.647496,2.26327 -2.798472,2.26327 -0.05844,0 -0.378095,0.24923 -0.710431,0.55378 -0.802622,0.73563 -2.955462,2.13573 -3.485925,2.26803 -0.347829,0.086 -0.422648,0.056 -0.422648,-0.1823 0,-0.4044 0.312721,-1.2557 0.461067,-1.2557 0.06796,0 0.195539,-0.2066 0.283436,-0.4587 0.08786,-0.2523 1.002215,-1.8953 2.031807,-3.65121 1.02959,-1.75589 2.105484,-3.63451 2.39087,-4.17477 0.650164,-1.23069 2.168543,-3.67869 2.544445,-4.10224 0.155665,-0.17543 0.236291,-0.36567 0.17916,-0.42271 -0.05719,-0.0568 -0.0313,-0.104 0.05757,-0.104 0.08878,0 0.205132,-0.12096 0.258609,-0.26899 0.05339,-0.14789 0.182571,-0.40925 0.286877,-0.58073 2.314173,-3.80433 2.581634,-4.15796 4.136927,-5.47158 0.894207,-0.75531 2.137125,-1.1228 3.35297,-0.99115 0.818027,0.0883 4.421744,1.15449 6.147568,1.81855 0.46491,0.17884 2.124754,0.9217 3.688541,1.65084 4.227596,1.97115 8.213125,4.54788 11.680376,7.55147 5.922066,5.13018 6.20251,5.40392 6.85405,6.68785 0.56405,1.11162 0.599506,1.26534 0.653094,2.83127 0.05536,1.6175 0.04527,1.678 -0.434392,2.5781 -0.468988,0.8801 -1.16908,1.5888 -2.001005,2.0252 -0.211323,0.1111 -0.418803,0.2464 -0.461069,0.3018 -0.04225,0.062 -4.624121,2.47273 -10.181904,5.37353 -5.557791,2.901 -10.105072,5.3356 -10.105072,5.4113 0,0.2814 -0.02985,0.3728 -0.180549,0.5542 -0.08498,0.1032 -0.157423,0.4826 -0.161095,0.8454 -0.0064,0.5398 0.155237,0.9246 0.886013,2.1204 0.490981,0.803 1.024205,1.6337 1.18494,1.8445 0.970681,1.2768 1.654422,2.3422 1.744489,2.7191 0.05692,0.2373 0.15569,0.5023 0.219557,0.5864 0.400478,0.5302 2.915281,5.3979 2.915281,5.6419 0,0.092 0.336482,0.6942 0.74774,1.337 0.879104,1.3741 1.557602,2.6799 1.557602,2.9994 0,0.5692 -0.667718,0.5847 -1.767426,0.049 z M 31.594862,976.11523 c -2.534372,-0.74068 -3.45326,-1.29557 -4.112093,-2.48279 -0.639181,-1.15185 -0.860389,-2.11149 -0.868149,-3.76636 -0.0068,-1.2919 0.05038,-1.66616 0.353798,-2.34447 0.198554,-0.44381 0.421645,-0.80702 0.495758,-0.80702 0.07418,0 0.134768,-0.098 0.134768,-0.21773 0,-0.23673 1.799553,-1.93454 2.050468,-1.93454 0.08465,0 0.267139,-0.10257 0.405633,-0.22798 0.604566,-0.54722 3.696291,-0.84455 4.374238,-0.42061 0.08934,0.0553 0.295412,0.12235 0.457835,0.14765 0.162422,0.0256 0.387966,0.12276 0.501196,0.21686 0.113235,0.0942 0.406525,0.2828 0.651753,0.41961 0.590157,0.32929 1.943231,1.5666 1.894476,1.73239 -0.0212,0.0715 0.02261,0.13056 0.09725,0.13056 0.07467,0 0.326818,0.39784 0.560404,0.88402 0.798837,1.66261 0.67679,4.22433 -0.269338,5.6532 -1.370595,2.06979 -2.907586,2.99832 -5.101779,3.08202 -0.68311,0.0263 -1.414916,-0.004 -1.626241,-0.0646 z"
       id="path2890"
       inkscape:connector-curvature="0" />
  </g>
</svg>
