<?xml version="1.0" encoding="UTF-8" standalone="no"?>
<!-- Created with Inkscape (http://www.inkscape.org/) -->

<svg
   xmlns:dc="http://purl.org/dc/elements/1.1/"
   xmlns:cc="http://creativecommons.org/ns#"
   xmlns:rdf="http://www.w3.org/1999/02/22-rdf-syntax-ns#"
   xmlns:svg="http://www.w3.org/2000/svg"
   xmlns="http://www.w3.org/2000/svg"
   xmlns:sodipodi="http://sodipodi.sourceforge.net/DTD/sodipodi-0.dtd"
   xmlns:inkscape="http://www.inkscape.org/namespaces/inkscape"
   width="100"
   height="100"
   id="svg2"
   version="1.1"
   inkscape:version="0.48.4 r9939"
   sodipodi:docname="palp.svg">
  <defs
     id="defs4">
    <inkscape:perspective
       sodipodi:type="inkscape:persp3d"
       inkscape:vp_x="0 : 526.18109 : 1"
       inkscape:vp_y="0 : 1000 : 0"
       inkscape:vp_z="744.09448 : 526.18109 : 1"
       inkscape:persp3d-origin="372.04724 : 350.78739 : 1"
       id="perspective10" />
  </defs>
  <sodipodi:namedview
     id="base"
     pagecolor="#ffffff"
     bordercolor="#666666"
     borderopacity="1.0"
     inkscape:pageopacity="0.0"
     inkscape:pageshadow="2"
     inkscape:zoom="7.4833333"
     inkscape:cx="60"
     inkscape:cy="55.345212"
     inkscape:document-units="px"
     inkscape:current-layer="layer1"
     showgrid="false"
     inkscape:showpageshadow="false"
     showguides="true"
     inkscape:guide-bbox="true"
     inkscape:window-width="1232"
     inkscape:window-height="939"
     inkscape:window-x="48"
     inkscape:window-y="21"
     inkscape:window-maximized="1"
     borderlayer="true" />
  <metadata
     id="metadata7">
    <rdf:RDF>
      <cc:Work
         rdf:about="">
        <dc:format>image/svg+xml</dc:format>
        <dc:type
           rdf:resource="http://purl.org/dc/dcmitype/StillImage" />
        <dc:title></dc:title>
      </cc:Work>
    </rdf:RDF>
  </metadata>
  <g
     inkscape:label="1. réteg"
     inkscape:groupmode="layer"
     id="layer1"
     transform="translate(0,-952.36218)">
    <g
       id="g3924"
       transform="scale(0.83333333,1)">
      <rect
         transform="translate(0,952.36218)"
         y="0"
         x="0"
         height="100"
         width="120"
         id="rect2823"
         style="color:#000000;fill:#c7282d;fill-opacity:1;fill-rule:nonzero;stroke:none;stroke-width:1px;marker:none;visibility:visible;display:inline;overflow:visible;enable-background:accumulate" />
      <path
         inkscape:connector-curvature="0"
         id="path3051"
         d="m 88.15705,1041.0241 c -14.618237,-0.6033 -33.356714,-2.8192 -42.657428,-5.0442 -21.430766,-5.1269 -29.702921,-12.8736 -25.511007,-23.8909 3.643507,-9.576 13.930391,-17.20194 28.373679,-21.03435 9.226327,-2.44814 16.084555,-2.05929 8.118484,0.46028 -10.650588,3.36868 -16.539194,7.75147 -19.787343,14.72737 -2.697045,5.7924 -2.609854,8.3541 0.389376,11.4403 2.147223,2.2096 11.862658,7.7377 12.455857,7.0876 0.119955,-0.1316 -0.328439,-2.4836 -0.996429,-5.2268 -1.033834,-4.2457 -0.899813,-5.7532 0.900816,-10.133 2.388045,-5.8088 12.56025,-17.29815 19.695984,-22.24649 2.611922,-1.81127 5.624275,-5.09021 6.694119,-7.28653 l 1.94517,-3.99333 -3.429129,-3.37226 c -3.670338,-3.60945 -12.551341,-7.68412 -21.593422,-9.9072 -8.786524,-2.16023 -2.90088,-2.46573 7.952219,-0.41276 12.939374,2.44761 21.239325,5.9556 24.67247,10.42785 4.825124,6.28552 3.935395,8.7997 -7.165765,20.24887 -9.17435,9.46185 -9.985456,10.67305 -10.500398,15.68085 -1.253852,12.1935 9.44695,22.3923 28.264855,26.9392 7.664942,1.8519 10.685522,3.3051 9.521892,4.5806 -0.76664,0.8402 -9.059158,1.2969 -17.344,0.9549 z"
         style="fill:#ffffff;fill-opacity:1" />
    </g>
  </g>
</svg>
