<?xml version="1.0" encoding="UTF-8" standalone="no"?>
<!-- Created with Inkscape (http://www.inkscape.org/) -->

<svg
   xmlns:dc="http://purl.org/dc/elements/1.1/"
   xmlns:cc="http://creativecommons.org/ns#"
   xmlns:rdf="http://www.w3.org/1999/02/22-rdf-syntax-ns#"
   xmlns:svg="http://www.w3.org/2000/svg"
   xmlns="http://www.w3.org/2000/svg"
   xmlns:sodipodi="http://sodipodi.sourceforge.net/DTD/sodipodi-0.dtd"
   xmlns:inkscape="http://www.inkscape.org/namespaces/inkscape"
   id="svg3038"
   version="1.1"
   inkscape:version="0.48.4 r9939"
   width="100"
   height="100"
   sodipodi:docname="sbarack.svg">
  <metadata
     id="metadata3044">
    <rdf:RDF>
      <cc:Work
         rdf:about="">
        <dc:format>image/svg+xml</dc:format>
        <dc:type
           rdf:resource="http://purl.org/dc/dcmitype/StillImage" />
        <dc:title></dc:title>
      </cc:Work>
    </rdf:RDF>
  </metadata>
  <defs
     id="defs3042" />
  <sodipodi:namedview
     pagecolor="#ffffff"
     bordercolor="#666666"
     borderopacity="1"
     objecttolerance="10"
     gridtolerance="10"
     guidetolerance="10"
     inkscape:pageopacity="0"
     inkscape:pageshadow="2"
     inkscape:window-width="1232"
     inkscape:window-height="939"
     id="namedview3040"
     showgrid="false"
     borderlayer="true"
     inkscape:showpageshadow="false"
     inkscape:zoom="6.7416667"
     inkscape:cx="60"
     inkscape:cy="50"
     inkscape:window-x="48"
     inkscape:window-y="21"
     inkscape:window-maximized="1"
     inkscape:current-layer="svg3038" />
  <rect
     style="fill:#ffffff;fill-opacity:1;stroke:none"
     id="rect3818"
     width="100"
     height="100"
     x="0"
     y="-2.8069317e-15" />
  <path
     style="fill:#ebc800;fill-opacity:1"
     d="m 57.525596,92.289132 c -1.220804,-0.233145 -4.034375,-1.475012 -4.91653,-2.170118 -1.976976,-1.557784 -4.844264,-4.840688 -4.844264,-5.546503 0,-0.148942 -0.07738,-0.271296 -0.171979,-0.271909 -0.09454,-0.0019 -0.736236,-1.135622 -1.425962,-2.522245 -1.020182,-2.050949 -1.346994,-2.521151 -1.752495,-2.521151 -0.701839,0 -0.749372,0.302109 -0.414842,2.636899 0.453678,3.166419 0.406783,6.452764 -0.108005,7.56677 -0.967188,2.092997 -1.784494,2.417274 -5.842333,2.318031 -2.083008,-0.05093 -3.212566,-0.198738 -4.500681,-0.588877 -4.298173,-1.301793 -8.208429,-4.110642 -11.345028,-8.149436 -3.256803,-4.193601 -5.708871,-9.521749 -6.964599,-15.133537 -0.991691,-4.431803 -1.054949,-5.028854 -1.056786,-9.974373 -0.0018,-4.682658 0.02997,-5.044826 0.632492,-7.222813 0.348879,-1.261127 0.68044,-2.499323 0.736806,-2.751547 0.05637,-0.252237 0.198339,-0.664956 0.315495,-0.91719 0.117159,-0.25222 0.476261,-1.145701 0.798005,-1.985493 1.671631,-4.363193 5.586817,-10.009784 8.613007,-12.422012 0.448306,-0.357286 0.867454,-0.72307 0.931446,-0.812805 0.237321,-0.3327 3.23053,-2.102334 4.179035,-2.470699 0.540001,-0.209692 1.085,-0.453921 1.211112,-0.542691 0.126118,-0.08876 0.538847,-0.236879 0.917188,-0.329163 0.378339,-0.09224 0.894248,-0.218498 1.146476,-0.280511 2.829638,-0.695685 5.135888,-0.71537 6.803345,-0.05807 2.578644,1.01642 4.836112,3.337713 5.736093,5.898332 0.354337,1.008179 0.433329,1.745637 0.376789,3.518584 -0.07534,2.364299 0.09903,2.886157 0.875751,2.621076 0.233409,-0.07969 0.682309,-0.675268 0.997649,-1.323576 3.4779,-7.151812 9.332415,-10.657592 15.9926,-9.576722 1.538307,0.249639 4.833095,1.491843 6.413534,2.41807 6.668554,3.908017 12.258179,11.362189 14.064036,18.755597 1.251541,5.124233 1.182456,13.437869 -0.156555,18.831839 -0.949987,3.826616 -3.117231,8.928556 -4.967634,11.694088 -1.796143,2.684575 -4.803362,5.906393 -6.63831,7.112093 -0.536567,0.352578 -1.233523,0.810965 -1.548821,1.018624 -3.877984,2.554247 -10.059525,3.950385 -14.086035,3.181486 z M 47.00323,26.576486 c -2.881501,-5.77052 -3.53135,-7.522961 -3.876994,-10.455512 -0.264639,-2.24501 -0.263012,-2.260577 0.271936,-2.664077 0.66954,-0.505056 3.073578,-1.342148 4.110558,-1.431319 l 0.775712,-0.06672 -0.0399,3.439532 c -0.04121,3.550653 0.263307,6.013277 1.075547,8.697019 0.462084,1.526763 0.836955,1.837985 1.067167,0.885989 0.261611,-1.081789 1.579071,-4.245994 2.271582,-5.455765 3.152151,-5.506458 8.444367,-9.6147733 14.481522,-11.2418243 3.00916,-0.810999 7.896402,-1.026843 11.00862,-0.486217 2.474031,0.429731 5.156741,1.22784 5.156741,1.534016 0,0.463291 -1.352973,4.0975113 -2.043976,5.4899843 -2.177264,4.38846 -5.838967,7.621721 -10.223361,9.027292 -1.484369,0.475842 -5.653063,1.116014 -7.050868,1.082692 -0.598979,-0.01428 -1.089141,0.05847 -1.089141,0.161657 0,0.103176 -0.860708,0.312025 -1.912744,0.464142 -3.71253,0.536774 -6.805388,1.933745 -9.744027,4.401131 -0.901287,0.756746 -1.689031,1.375891 -1.750573,1.375891 -0.06157,0 -1.181055,-2.141066 -2.487812,-4.757897 z"
     id="path3048"
     inkscape:connector-curvature="0"
     sodipodi:nodetypes="ssscsssssssscssssssssssssssssssssssssssscsssssssssssssss" />
</svg>
