<?xml version="1.0" encoding="UTF-8" standalone="no"?>
<!-- Created with Inkscape (http://www.inkscape.org/) -->

<svg
   xmlns:dc="http://purl.org/dc/elements/1.1/"
   xmlns:cc="http://creativecommons.org/ns#"
   xmlns:rdf="http://www.w3.org/1999/02/22-rdf-syntax-ns#"
   xmlns:svg="http://www.w3.org/2000/svg"
   xmlns="http://www.w3.org/2000/svg"
   xmlns:sodipodi="http://sodipodi.sourceforge.net/DTD/sodipodi-0.dtd"
   xmlns:inkscape="http://www.inkscape.org/namespaces/inkscape"
   width="100"
   height="100"
   id="svg2"
   version="1.1"
   inkscape:version="0.48.4 r9939"
   sodipodi:docname="ste.svg">
  <defs
     id="defs4">
    <inkscape:path-effect
       effect="spiro"
       id="path-effect3819"
       is_visible="true" />
    <inkscape:perspective
       sodipodi:type="inkscape:persp3d"
       inkscape:vp_x="0 : 526.18109 : 1"
       inkscape:vp_y="0 : 1000 : 0"
       inkscape:vp_z="744.09448 : 526.18109 : 1"
       inkscape:persp3d-origin="372.04724 : 350.78739 : 1"
       id="perspective10" />
    <inkscape:perspective
       id="perspective2844"
       inkscape:persp3d-origin="0.5 : 0.33333333 : 1"
       inkscape:vp_z="1 : 0.5 : 1"
       inkscape:vp_y="0 : 1000 : 0"
       inkscape:vp_x="0 : 0.5 : 1"
       sodipodi:type="inkscape:persp3d" />
    <inkscape:perspective
       id="perspective2851"
       inkscape:persp3d-origin="0.5 : 0.33333333 : 1"
       inkscape:vp_z="1 : 0.5 : 1"
       inkscape:vp_y="0 : 1000 : 0"
       inkscape:vp_x="0 : 0.5 : 1"
       sodipodi:type="inkscape:persp3d" />
    <inkscape:perspective
       id="perspective2827"
       inkscape:persp3d-origin="0.5 : 0.33333333 : 1"
       inkscape:vp_z="1 : 0.5 : 1"
       inkscape:vp_y="0 : 1000 : 0"
       inkscape:vp_x="0 : 0.5 : 1"
       sodipodi:type="inkscape:persp3d" />
    <inkscape:perspective
       id="perspective2840"
       inkscape:persp3d-origin="0.5 : 0.33333333 : 1"
       inkscape:vp_z="1 : 0.5 : 1"
       inkscape:vp_y="0 : 1000 : 0"
       inkscape:vp_x="0 : 0.5 : 1"
       sodipodi:type="inkscape:persp3d" />
    <inkscape:perspective
       id="perspective2827-6"
       inkscape:persp3d-origin="0.5 : 0.33333333 : 1"
       inkscape:vp_z="1 : 0.5 : 1"
       inkscape:vp_y="0 : 1000 : 0"
       inkscape:vp_x="0 : 0.5 : 1"
       sodipodi:type="inkscape:persp3d" />
    <inkscape:perspective
       id="perspective3986"
       inkscape:persp3d-origin="0.5 : 0.33333333 : 1"
       inkscape:vp_z="1 : 0.5 : 1"
       inkscape:vp_y="0 : 1000 : 0"
       inkscape:vp_x="0 : 0.5 : 1"
       sodipodi:type="inkscape:persp3d" />
    <inkscape:perspective
       id="perspective4062"
       inkscape:persp3d-origin="0.5 : 0.33333333 : 1"
       inkscape:vp_z="1 : 0.5 : 1"
       inkscape:vp_y="0 : 1000 : 0"
       inkscape:vp_x="0 : 0.5 : 1"
       sodipodi:type="inkscape:persp3d" />
  </defs>
  <sodipodi:namedview
     id="base"
     pagecolor="#ffffff"
     bordercolor="#666666"
     borderopacity="1.0"
     inkscape:pageopacity="0.0"
     inkscape:pageshadow="2"
     inkscape:zoom="7.13"
     inkscape:cx="60"
     inkscape:cy="50"
     inkscape:document-units="px"
     inkscape:current-layer="layer1"
     showgrid="false"
     inkscape:showpageshadow="false"
     showguides="true"
     inkscape:guide-bbox="true"
     inkscape:window-width="1232"
     inkscape:window-height="939"
     inkscape:window-x="48"
     inkscape:window-y="21"
     inkscape:window-maximized="1"
     borderlayer="true">
    <sodipodi:guide
       orientation="1,0"
       position="144.0678,422.0339"
       id="guide2818" />
  </sodipodi:namedview>
  <metadata
     id="metadata7">
    <rdf:RDF>
      <cc:Work
         rdf:about="">
        <dc:format>image/svg+xml</dc:format>
        <dc:type
           rdf:resource="http://purl.org/dc/dcmitype/StillImage" />
        <dc:title></dc:title>
      </cc:Work>
    </rdf:RDF>
  </metadata>
  <g
     inkscape:label="1. réteg"
     inkscape:groupmode="layer"
     id="layer1"
     transform="translate(0,-952.36218)">
    <rect
       style="color:#e60000;fill:#ffffff;fill-opacity:1;fill-rule:nonzero;stroke:none;stroke-width:1px;marker:none;visibility:visible;display:inline;overflow:visible;enable-background:accumulate"
       id="rect2823"
       width="100"
       height="100"
       x="0"
       y="952.36218" />
    <path
       style="fill:#e60000"
       d="m 48.815734,1036.0278 c -5.182813,-0.1231 -10.561668,-1.2229 -15.497113,-3.1768 -2.880115,-1.139 -6.80938,-3.2948 -9.477575,-5.196 -2.627162,-1.8746 -5.915072,-4.8803 -7.988189,-7.3041 -4.687127,-5.48 -7.9782348,-11.8192 -9.6820424,-18.6514 -0.8107396,-3.24693 -1.1677331,-5.78883 -1.3378022,-9.52162 -0.089842,-1.97154 -0.082496,-2.44971 0.047096,-3.07555 0.3078527,-1.48654 1.2754982,-2.76648 2.5955657,-3.43337 l 0.6985307,-0.35267 2.1552322,0.01 c 5.234158,0.0217 11.029989,1.27704 16.256547,3.52436 9.797225,4.21297 17.967903,11.92115 22.681231,21.39715 0.40395,0.8146 0.778089,1.4493 0.831444,1.4205 0.05327,-0.038 0.490396,-0.8417 0.971148,-1.7899 5.607274,-11.07507 15.888764,-19.57908 27.737667,-22.94746 3.389325,-0.96329 6.252245,-1.43401 10.136597,-1.66597 2.058377,-0.12282 2.439188,-0.0754 3.503832,0.42633 1.164072,0.54994 2.07022,1.57668 2.504482,2.83771 0.532371,1.54589 0.261513,6.78818 -0.560429,10.84892 -1.820709,9.00197 -6.0115,16.88687 -12.373915,23.29277 -4.49989,4.5294 -9.462803,7.8147 -15.447317,10.2268 -4.362355,1.7544 -9.639653,2.9036 -14.060311,3.0535 -0.846695,0.032 -1.793481,0.073 -2.103918,0.086 -0.310467,0.016 -1.02633,0.016 -1.590794,0 z m -4.874903,-10.5658 c 0,-0.3063 -0.39279,-2.3067 -0.672069,-3.4236 -1.586555,-6.3542 -4.781105,-12.0032 -9.408639,-16.6372 -4.426997,-4.431 -9.910989,-7.59081 -15.936031,-9.18265 -1.444739,-0.38138 -2.822389,-0.65584 -2.899992,-0.57763 -0.08986,0.0898 0.255622,1.98177 0.657879,3.60181 1.248817,5.02527 3.468193,9.47267 6.894841,13.81497 1.034453,1.3154 3.800853,4.081 5.199776,5.206 4.444144,3.5731 9.330723,5.9101 14.932653,7.1472 0.592702,0.127 1.112258,0.2384 1.154611,0.2437 0.04222,0.011 0.07688,-0.091 0.07688,-0.1926 z m 14.676103,-0.3615 c 4.062431,-1.032 7.820838,-2.7196 11.181947,-5.0156 5.491346,-3.7577 9.740254,-8.8174 12.489153,-14.8896 0.67503,-1.4863 1.688873,-4.3815 2.077135,-5.92807 0.255799,-1.02111 0.732451,-3.59903 0.675591,-3.65628 -0.109913,-0.11064 -3.006068,0.5745 -4.61496,1.09197 -10.507458,3.37798 -18.826189,11.45398 -22.599615,21.93818 -0.700492,1.9454 -1.67237,5.8706 -1.67237,6.7551 l 0,0.243 0.692739,-0.1303 c 0.381023,-0.081 1.17768,-0.2607 1.77038,-0.4084 z M 41.256542,995.7123 c -1.198125,-1.11916 -2.62087,-2.33963 -3.498133,-3.00077 -0.323953,-0.24416 -0.565282,-0.48277 -0.536212,-0.53011 0.09141,-0.14869 1.905869,-1.09638 2.869975,-1.4989 3.401217,-1.41977 6.30285,-2.00827 9.903805,-2.00827 2.665448,0 4.702059,0.28398 7.132815,0.99441 1.673933,0.48896 3.96923,1.4662 5.363524,2.28342 l 0.437326,0.25627 -0.488624,0.37166 c -0.967549,0.73631 -2.765711,2.27977 -3.732323,3.20365 l -0.985823,0.94229 -0.861518,-0.34005 c -3.668375,-1.44618 -7.785022,-1.69143 -11.606343,-0.69085 -0.638153,0.16683 -1.559552,0.46276 -2.047628,0.65742 l -0.88736,0.35313 -1.063481,-0.9933 z m -14.86548,-9.4946 c -2.241831,-0.93759 -6.231455,-2.09956 -8.810022,-2.56602 l -0.95881,-0.17344 1.369336,-1.38703 c 7.456239,-7.55265 16.671513,-12.01223 27.437373,-13.27773 1.78132,-0.20953 7.833838,-0.17267 9.698543,0.0562 9.450964,1.17356 17.7457,4.90652 24.785172,11.15434 1.449401,1.28642 3.335479,3.18158 3.335479,3.3517 0,0.0558 -0.219371,0.13726 -0.487486,0.17547 -2.23087,0.31744 -6.659768,1.61668 -9.629101,2.82452 l -0.520646,0.21191 -1.394748,-1.05037 c -5.300906,-3.99208 -11.383723,-6.36249 -17.952945,-6.9956 -1.957651,-0.18882 -6.409033,-0.0761 -8.244786,0.2052 -6.125468,0.94483 -11.80198,3.37054 -16.515724,7.05736 -0.5631,0.44048 -1.072303,0.79492 -1.131541,0.78807 -0.05919,-0.0111 -0.500289,-0.1769 -0.980094,-0.37751 z"
       id="path4068"
       inkscape:connector-curvature="0" />
  </g>
</svg>
