<?xml version="1.0" encoding="UTF-8" standalone="no"?>
<!-- Created with Inkscape (http://www.inkscape.org/) -->

<svg
   xmlns:dc="http://purl.org/dc/elements/1.1/"
   xmlns:cc="http://creativecommons.org/ns#"
   xmlns:rdf="http://www.w3.org/1999/02/22-rdf-syntax-ns#"
   xmlns:svg="http://www.w3.org/2000/svg"
   xmlns="http://www.w3.org/2000/svg"
   xmlns:sodipodi="http://sodipodi.sourceforge.net/DTD/sodipodi-0.dtd"
   xmlns:inkscape="http://www.inkscape.org/namespaces/inkscape"
   version="1.0"
   width="100"
   height="100"
   viewBox="0 0 100.00001 100"
   id="Layer_2"
   xml:space="preserve"
   inkscape:version="0.48.4 r9939"
   sodipodi:docname="stj.svg"><metadata
     id="metadata8"><rdf:RDF><cc:Work
         rdf:about=""><dc:format>image/svg+xml</dc:format><dc:type
           rdf:resource="http://purl.org/dc/dcmitype/StillImage" /><dc:title></dc:title></cc:Work></rdf:RDF></metadata><sodipodi:namedview
     pagecolor="#ffffff"
     bordercolor="#666666"
     borderopacity="1"
     objecttolerance="10"
     gridtolerance="10"
     guidetolerance="10"
     inkscape:pageopacity="0"
     inkscape:pageshadow="2"
     inkscape:window-width="1232"
     inkscape:window-height="939"
     id="namedview6"
     showgrid="false"
     inkscape:zoom="7.13"
     inkscape:cx="60"
     inkscape:cy="50"
     inkscape:window-x="48"
     inkscape:window-y="21"
     inkscape:window-maximized="1"
     inkscape:current-layer="Layer_2"
     borderlayer="true"
     inkscape:showpageshadow="false" /><defs
     id="defs2033"><inkscape:perspective
       sodipodi:type="inkscape:persp3d"
       inkscape:vp_x="0 : 296.50049 : 1"
       inkscape:vp_y="0 : 1000 : 0"
       inkscape:vp_z="606.95697 : 296.50049 : 1"
       inkscape:persp3d-origin="303.47849 : 197.66699 : 1"
       id="perspective10" /></defs><rect
     width="100.00001"
     height="100.00001"
     x="3.6971294e-17"
     y="-1.0565836e-05"
     style="fill:#1b479d"
     id="rect2028" /><path
     d="m 10.17837,59.793717 c 0,0 -5.1773038,-8.197388 -5.0910158,-10.613461 0.08618,-2.416077 5.4361728,-10.87233 5.4361728,-10.87233 l 0.129434,-9.448563 4.098699,0.129435 0.172579,2.11405 11.390081,-17.559654 4.141852,2.070925 -12.425544,19.285421 30.804993,-27.5691013 3.0201,2.545497 -30.459842,28.2594153 49.874748,-26.145342 1.898358,3.537816 -49.788476,26.576789 64.284938,-15.531881 0.949178,3.796672 -63.767208,16.437921 70.066303,0.733451 0,4.055552 -69.72115,-0.517735 63.767194,17.77539 -0.906022,3.79668 -65.147811,-16.783072 50.608201,28.518282 -2.329786,3.624103 -50.3062,-28.000546 29.94211,29.726314 -2.761228,2.933803 -30.373559,-29.338016 11.001788,20.105175 -3.667256,2.114053 -10.527206,-17.947958 -0.08622,1.768904 -4.5301398,0 0.3020048,-9.577989 z"
     style="fill:#e9bf1e;stroke:#000000;stroke-width:0.17257677"
     id="path2030"
     inkscape:connector-curvature="0" /></svg>