<?xml version="1.0" encoding="UTF-8" standalone="no"?>
<!-- Created with Inkscape (http://www.inkscape.org/) -->

<svg
   xmlns:dc="http://purl.org/dc/elements/1.1/"
   xmlns:cc="http://creativecommons.org/ns#"
   xmlns:rdf="http://www.w3.org/1999/02/22-rdf-syntax-ns#"
   xmlns:svg="http://www.w3.org/2000/svg"
   xmlns="http://www.w3.org/2000/svg"
   xmlns:sodipodi="http://sodipodi.sourceforge.net/DTD/sodipodi-0.dtd"
   xmlns:inkscape="http://www.inkscape.org/namespaces/inkscape"
   width="100"
   height="100"
   id="svg2"
   version="1.1"
   inkscape:version="0.47 r22583"
   sodipodi:docname="barlang.svg">
  <defs
     id="defs4">
    <inkscape:perspective
       sodipodi:type="inkscape:persp3d"
       inkscape:vp_x="0 : 526.18109 : 1"
       inkscape:vp_y="0 : 1000 : 0"
       inkscape:vp_z="744.09448 : 526.18109 : 1"
       inkscape:persp3d-origin="372.04724 : 350.78739 : 1"
       id="perspective10" />
    <inkscape:perspective
       id="perspective2905"
       inkscape:persp3d-origin="0.5 : 0.33333333 : 1"
       inkscape:vp_z="1 : 0.5 : 1"
       inkscape:vp_y="0 : 1000 : 0"
       inkscape:vp_x="0 : 0.5 : 1"
       sodipodi:type="inkscape:persp3d" />
  </defs>
  <sodipodi:namedview
     id="base"
     pagecolor="#ffffff"
     bordercolor="#666666"
     borderopacity="1.0"
     inkscape:pageopacity="0.0"
     inkscape:pageshadow="2"
     inkscape:zoom="7.13"
     inkscape:cx="35.807187"
     inkscape:cy="50"
     inkscape:document-units="px"
     inkscape:current-layer="layer1"
     showgrid="false"
     inkscape:showpageshadow="false"
     showguides="true"
     inkscape:guide-bbox="true"
     inkscape:window-width="1400"
     inkscape:window-height="972"
     inkscape:window-x="0"
     inkscape:window-y="25"
     inkscape:window-maximized="1" />
  <metadata
     id="metadata7">
    <rdf:RDF>
      <cc:Work
         rdf:about="">
        <dc:format>image/svg+xml</dc:format>
        <dc:type
           rdf:resource="http://purl.org/dc/dcmitype/StillImage" />
        <dc:title></dc:title>
      </cc:Work>
    </rdf:RDF>
  </metadata>
  <g
     inkscape:label="1. réteg"
     inkscape:groupmode="layer"
     id="layer1"
     transform="translate(0,-952.36218)">
    <rect
       style="fill:none;stroke:none"
       id="rect2820"
       width="100"
       height="100"
       x="-0.14025246"
       y="-0.14025246"
       transform="translate(0,952.36218)" />
    <rect
       style="color:#000000;fill:none;stroke:none;stroke-width:0.2;marker:none;visibility:visible;display:inline;overflow:visible;enable-background:accumulate"
       id="rect3596"
       width="99"
       height="99"
       x="1.1220196"
       y="1.2622721"
       transform="translate(0,952.36218)" />
    <rect
       style="color:#000000;fill:#ffffff;stroke:#000000;stroke-width:1.00759101000000006;stroke-linecap:butt;stroke-linejoin:miter;stroke-miterlimit:4;stroke-opacity:1;stroke-dasharray:none;stroke-dashoffset:0;marker:none;visibility:visible;display:inline;overflow:visible;enable-background:accumulate;fill-opacity:1"
       id="rect3598"
       width="98.992409"
       height="98.992409"
       x="0.56480533"
       y="952.94525" />
    <rect
       style="fill:#ffffff;fill-opacity:1;stroke:none"
       id="rect3872"
       width="20"
       height="30"
       x="40"
       y="40"
       transform="translate(0,952.36218)" />
    <path
       sodipodi:type="arc"
       style="fill:#ffffff;fill-opacity:1;stroke:none"
       id="path3876"
       sodipodi:cx="50"
       sodipodi:cy="38.288921"
       sodipodi:rx="10"
       sodipodi:ry="11.220197"
       d="m 60,38.288921 c 0,6.196744 -4.477153,11.220197 -10,11.220197 -5.522847,0 -10,-5.023453 -10,-11.220197 0,-6.196743 4.477153,-11.220196 10,-11.220196 5.522847,0 10,5.023453 10,11.220196 z"
       transform="matrix(1,0,0,0.84749971,0,959.91233)" />
    <path
       style="fill:#0000cc;fill-opacity:1"
       d="m 79.546919,1031.3441 c -6.484918,-3.4694 -6.968603,-5.1827 -6.972286,-24.6953 -0.0017,-9.33306 -0.374178,-17.71842 -0.827591,-18.63417 -2.249202,-4.54267 -13.104147,-5.47768 -16.830601,-1.4498 -1.835213,1.98371 -2.110746,3.02462 -1.889611,7.13886 l 0.258884,4.81663 4.707659,1.93748 c 3.569842,1.469 4.908476,2.5545 5.538517,4.491 1.270117,3.9037 -0.232103,5.5551 -6.04843,6.6497 l -5.054889,0.951 -0.248673,8.7269 c -0.136769,4.7996 -0.666141,9.2704 -1.17638,9.9349 -1.311572,1.7082 -8.005948,1.5365 -9.656579,-0.2476 C 40.316537,1029.8499 40,1027.4931 40,1020.935 l 0,-8.5728 -5.270031,-0.8574 c -4.171117,-0.6787 -5.406927,-1.2642 -5.926536,-2.808 -1.015599,-3.0178 0.977388,-6.1893 4.874738,-7.7576 C 38.967506,998.81071 40,997.51622 40,993.01305 c 0,-3.29943 -0.447259,-4.38013 -2.637194,-6.37191 -3.593507,-3.26829 -10.709863,-3.57524 -14.505662,-0.62551 l -2.142858,1.66529 -0.428572,21.47808 c -0.473883,23.7489 -0.333933,23.2201 -6.15306,23.2464 -5.7700551,0.025 -5.8469386,-0.2983 -5.8469386,-24.6497 0,-17.51639 0.2501871,-22.27511 1.2848121,-24.43764 4.4152805,-9.2289 22.0861845,-14.1255 31.7842075,-8.80741 5.171502,2.83589 5.832555,2.85288 9.227234,0.23559 2.324073,-1.79186 3.789828,-2.08465 10.43803,-2.08465 7.009737,0 8.269478,0.28486 13.447232,3.04104 9.149945,4.87057 9.584153,6.0736 10.104198,27.99607 L 85,1021.7651 l 3,0.082 c 4.669144,0.126 5.021814,0.2594 6.017336,2.27 1.319175,2.6643 0.276556,5.3571 -2.879581,7.4372 -3.526211,2.3241 -6.972099,2.2619 -11.590836,-0.2093 z"
       id="path2911" />
  </g>
</svg>
