<?xml version="1.0" encoding="UTF-8" standalone="no"?>
<!-- Created with Inkscape (http://www.inkscape.org/) -->

<svg
   xmlns:dc="http://purl.org/dc/elements/1.1/"
   xmlns:cc="http://creativecommons.org/ns#"
   xmlns:rdf="http://www.w3.org/1999/02/22-rdf-syntax-ns#"
   xmlns:svg="http://www.w3.org/2000/svg"
   xmlns="http://www.w3.org/2000/svg"
   xmlns:sodipodi="http://sodipodi.sourceforge.net/DTD/sodipodi-0.dtd"
   xmlns:inkscape="http://www.inkscape.org/namespaces/inkscape"
   width="100"
   height="100"
   id="svg2"
   version="1.1"
   inkscape:version="0.47 r22583"
   sodipodi:docname="kerett.svg">
  <defs
     id="defs4">
    <inkscape:perspective
       sodipodi:type="inkscape:persp3d"
       inkscape:vp_x="0 : 526.18109 : 1"
       inkscape:vp_y="0 : 1000 : 0"
       inkscape:vp_z="744.09448 : 526.18109 : 1"
       inkscape:persp3d-origin="372.04724 : 350.78739 : 1"
       id="perspective10" />
    <inkscape:perspective
       id="perspective2903"
       inkscape:persp3d-origin="0.5 : 0.33333333 : 1"
       inkscape:vp_z="1 : 0.5 : 1"
       inkscape:vp_y="0 : 1000 : 0"
       inkscape:vp_x="0 : 0.5 : 1"
       sodipodi:type="inkscape:persp3d" />
    <inkscape:perspective
       id="perspective3743"
       inkscape:persp3d-origin="0.5 : 0.33333333 : 1"
       inkscape:vp_z="1 : 0.5 : 1"
       inkscape:vp_y="0 : 1000 : 0"
       inkscape:vp_x="0 : 0.5 : 1"
       sodipodi:type="inkscape:persp3d" />
  </defs>
  <sodipodi:namedview
     id="base"
     pagecolor="#ffffff"
     bordercolor="#666666"
     borderopacity="1.0"
     inkscape:pageopacity="0.0"
     inkscape:pageshadow="2"
     inkscape:zoom="6.2"
     inkscape:cx="63.615927"
     inkscape:cy="50.462145"
     inkscape:document-units="px"
     inkscape:current-layer="layer1"
     showgrid="false"
     inkscape:showpageshadow="false"
     inkscape:snap-global="true"
     inkscape:snap-page="true"
     inkscape:window-width="1400"
     inkscape:window-height="972"
     inkscape:window-x="0"
     inkscape:window-y="25"
     inkscape:window-maximized="1"
     showguides="true"
     inkscape:guide-bbox="true" />
  <metadata
     id="metadata7">
    <rdf:RDF>
      <cc:Work
         rdf:about="">
        <dc:format>image/svg+xml</dc:format>
        <dc:type
           rdf:resource="http://purl.org/dc/dcmitype/StillImage" />
        <dc:title></dc:title>
      </cc:Work>
    </rdf:RDF>
  </metadata>
  <g
     inkscape:label="1. réteg"
     inkscape:groupmode="layer"
     id="layer1"
     transform="translate(0,-952.36218)">
    <rect
       style="color:#000000;fill:#ffffff;fill-opacity:1;fill-rule:nonzero;stroke:#000000;stroke-width:1px;marker:none;visibility:visible;display:inline;overflow:visible;enable-background:accumulate;stroke-opacity:1"
       id="rect3590"
       width="100"
       height="100"
       x="-3.3020768e-09"
       y="952.36218" />
    <path
       style="fill:#f3d900"
       d="m 23.631458,1039.2502 c -0.05316,-0.9117 -0.814763,-1.1688 -2.16138,-0.7296 -1.312531,0.4282 -2.079303,0.1921 -2.079303,-0.6402 0,-0.7254 -0.307836,-1.0024 -0.684081,-0.6156 -0.376244,0.3867 -1.311931,0.1675 -2.079302,-0.4871 -0.767372,-0.6546 -1.395222,-0.8163 -1.395222,-0.3594 0,0.457 -0.935686,-0.039 -2.079302,-1.1034 -1.143617,-1.0636 -2.079303,-2.5808 -2.079303,-3.3712 0,-0.7905 -0.408049,-1.4373 -0.906776,-1.4373 -1.3202918,0 -2.3783608,-8.1543 -1.6066638,-12.3822 0.364173,-1.9952 1.078676,-3.3629 1.5877848,-3.0396 0.50911,0.3234 0.925655,-0.4021 0.925655,-1.6121 0,-1.5089 0.672648,-2.2003 2.14066,-2.2003 1.177362,0 1.86383,-0.4604 1.525484,-1.0231 -0.338346,-0.5626 0.723249,-1.7344 2.359101,-2.6039 3.430067,-1.823 12.884852,-1.6446 13.50087,0.2549 0.22267,0.6866 0.772351,1.0148 1.221514,0.7295 1.538279,-0.9771 6.004615,4.323 6.729261,7.9853 0.05814,0.2939 0.403531,1.0152 0.767533,1.6029 1.228201,1.983 0.66932,9.1322 -0.834757,10.6781 -0.820954,0.8438 -1.456954,1.912 -1.413334,2.3737 0.162048,1.7155 -2.605851,4.5796 -4.425795,4.5796 -1.035331,0 -2.165067,0.7571 -2.510526,1.6824 -0.424128,1.136 -1.398473,1.4836 -3.000283,1.0705 -1.417899,-0.3658 -2.582887,-0.076 -2.895967,0.7219 -0.399766,1.018 -0.543224,1.0005 -0.605868,-0.074 z m 4.076528,-31.2468 c 0,-0.6223 -0.467843,-0.8344 -1.039651,-0.4712 -0.571808,0.3633 -1.039652,0.8725 -1.039652,1.1317 0,0.2591 0.467844,0.4711 1.039652,0.4711 0.571808,0 1.039651,-0.5091 1.039651,-1.1316 z m 45.744659,29.5776 c 0,-0.5606 -0.307836,-0.703 -0.684081,-0.3162 -0.376244,0.3867 -1.311931,0.1675 -2.079302,-0.4871 -0.767372,-0.6546 -1.402119,-0.7706 -1.410548,-0.2579 -0.0084,0.5128 -0.631482,-0.2699 -1.384559,-1.7392 -0.753079,-1.4692 -1.874787,-2.5652 -2.492686,-2.4354 -0.617899,0.1298 -1.710828,-1.3128 -2.428731,-3.2058 -2.589257,-6.8271 -1.673977,-15.7301 1.617139,-15.7301 0.892108,0 1.585209,-0.9343 1.585209,-2.1371 0,-1.9375 1.109987,-2.656 3.456144,-2.2372 0.471358,0.084 0.581526,-0.3052 0.244816,-0.8651 -0.33671,-0.5599 0.401612,-1.3488 1.640716,-1.753 3.666507,-1.1961 10.506449,-0.7266 11.414468,0.7835 0.463148,0.7702 1.012308,1.1599 1.220357,0.8661 0.664026,-0.9379 6.84384,4.6968 6.244441,5.6935 -0.316444,0.5263 0.0556,1.3577 0.826757,1.8474 0.849024,0.5394 1.487664,3.1937 1.618999,6.7292 0.169912,4.5739 -0.212212,6.2376 -1.764223,7.6812 -1.089613,1.0135 -1.730613,2.2594 -1.424447,2.7686 0.306167,0.5091 -0.132965,0.9257 -0.975848,0.9257 -0.842884,0 -2.655058,1.0277 -4.027055,2.2837 -2.573827,2.3564 -11.197566,3.5772 -11.197566,1.5852 z m -19.61698,-11.6118 c -5.539265,-5.8483 -8.453605,-9.5155 -8.453605,-10.6377 0,-0.6653 -0.308919,-0.8923 -0.686487,-0.5042 -0.926819,0.9525 -3.747225,-3.3016 -3.006045,-4.5342 0.322593,-0.5366 0.05003,-1.1593 -0.605699,-1.3839 -1.374626,-0.471 4.041392,-6.868 5.463104,-6.4528 0.502936,0.147 0.914429,-0.2137 0.914429,-0.8014 0,-0.5877 0.701765,-1.0685 1.559477,-1.0685 0.857713,0 1.559477,-0.3755 1.559477,-0.83432 0,-0.45887 1.40353,-1.37881 3.118954,-2.04433 4.137067,-1.605 3.942987,-4.17373 -0.519825,-6.8801 -2.001329,-1.21366 -3.63878,-2.93189 -3.63878,-3.81829 0,-0.95172 -0.603325,-1.37367 -1.473437,-1.03049 -0.81039,0.31962 -1.731393,-0.10979 -2.046673,-0.95424 -0.661498,-1.77179 -6.418165,-2.09339 -7.42743,-0.41493 -0.465988,0.77496 -1.097534,0.75895 -2.048102,-0.0519 -0.822037,-0.70121 -1.615764,-0.77088 -1.975051,-0.17338 -0.906671,1.50783 3.159523,2.24131 4.718835,0.8512 0.747807,-0.66666 0.497633,-0.14927 -0.555943,1.14976 -1.053578,1.29903 -2.423428,2.26075 -3.044112,2.13715 -0.620684,-0.12361 -1.149783,0.49655 -1.175774,1.37812 -0.02599,0.88157 -1.099904,1.75652 -2.386473,1.94432 -1.286568,0.1878 -2.339216,1.0293 -2.339216,1.87 0,0.8407 -0.467843,1.52854 -1.039652,1.52854 -1.685428,0 -1.201537,-1.64554 1.299565,-4.41935 1.286569,-1.42684 2.461772,-3.05984 2.611562,-3.62888 0.995098,-3.78031 1.595697,-4.77463 2.884039,-4.77463 0.848008,0 1.214123,-0.64995 0.876101,-1.55533 -0.736072,-1.97154 4.06175,-6.99323 6.681456,-6.99323 3.402477,0 8.554056,2.28393 7.837913,3.4749 -0.411037,0.68358 -0.179432,0.81211 0.586572,0.32552 0.696189,-0.44224 2.055043,-0.07 3.019675,0.82732 0.964633,0.89727 2.221722,1.65002 2.79353,1.67279 2.242366,0.0893 13.295354,10.13236 12.289288,11.16641 -0.373917,0.38433 -0.212005,0.69876 0.359803,0.69876 1.47584,0 1.289903,3.45734 -0.27229,5.063 -0.721567,0.74163 -2.047123,1.34843 -2.945678,1.34843 -0.898556,0 -1.633738,0.66207 -1.633738,1.47127 0,1.37281 -9.975915,6.67511 -11.696078,6.21661 -0.428856,-0.1144 -0.779738,0.2208 -0.779738,0.7448 0,0.524 -1.169608,1.2545 -2.599128,1.6232 -3.139394,0.8099 -3.306615,2.652 -0.519826,5.7265 1.143616,1.2617 2.086467,3.6364 2.095223,5.2771 0.0098,1.8223 0.329193,2.4766 0.820862,1.6812 0.544048,-0.8799 1.435448,-0.098 2.750268,2.4107 2.36648,4.5165 1.720292,5.6326 -1.371353,2.3685 z M 30.188631,974.1853 c -1.011126,-0.75992 -1.421501,-1.38167 -0.911946,-1.38167 0.509556,0 0.420118,-0.52043 -0.198749,-1.15652 -0.807185,-0.82963 -0.696665,-2.03945 0.391026,-4.28042 1.266071,-2.6085 1.974909,-3.02164 4.296151,-2.50399 1.528951,0.34097 3.344668,0.66431 4.034927,0.71853 0.690258,0.0542 1.542542,1.4441 1.893962,3.08862 1.200981,5.62013 -4.762184,9.08023 -9.505371,5.51545 z"
       id="path2909" />
    <path
       style="fill:none;stroke:#f3d900;stroke-width:1px;stroke-linecap:butt;stroke-linejoin:miter;stroke-opacity:1"
       d="m 26.612903,56.290323 0.967742,-0.322581"
       id="path2911"
       transform="translate(0,952.36218)" />
    <path
       style="fill:none;stroke:#f3d900;stroke-width:1px;stroke-linecap:butt;stroke-linejoin:miter;stroke-opacity:1"
       d="m 28.225806,56.129032 -2.258064,0 -0.806452,0 0.483871,0.645162"
       id="path2913"
       transform="translate(0,952.36218)" />
    <path
       style="fill:none;stroke:#f3d900;stroke-width:1px;stroke-linecap:butt;stroke-linejoin:miter;stroke-opacity:1"
       d="m 27.096774,55.645161 0,-0.16129"
       id="path2915"
       transform="translate(0,952.36218)" />
    <path
       style="fill:none;stroke:#f3d900;stroke-width:1px;stroke-linecap:butt;stroke-linejoin:miter;stroke-opacity:1"
       d="m 10.16129,63.064516 0.806452,-2.258064"
       id="path2917"
       transform="translate(0,952.36218)" />
    <path
       style="fill:none;stroke:#f3d900;stroke-width:1px;stroke-linecap:butt;stroke-linejoin:miter;stroke-opacity:1"
       d="m 12.741935,58.709677 1.935484,-1.451612"
       id="path2919"
       transform="translate(0,952.36218)" />
    <path
       style="fill:none;stroke:#f3d900;stroke-width:1px;stroke-linecap:butt;stroke-linejoin:miter;stroke-opacity:1"
       d="m 14.032258,58.870968 0.483871,-0.322581"
       id="path2921"
       transform="translate(0,952.36218)" />
    <path
       style="fill:none;stroke:#f3d900;stroke-width:1px;stroke-linecap:butt;stroke-linejoin:miter;stroke-opacity:1"
       d="m 12.419355,59.677419 5.645161,3.870968"
       id="path2923"
       transform="translate(0,952.36218)" />
    <path
       style="fill:none;stroke:#f3d900;stroke-width:1px;stroke-linecap:butt;stroke-linejoin:miter;stroke-opacity:1"
       d="M 29.354839,42.096774 40,31.290323"
       id="path2927"
       transform="translate(0,952.36218)" />
    <path
       style="fill:none;stroke:#f3d900;stroke-width:1px;stroke-linecap:butt;stroke-linejoin:miter;stroke-opacity:1"
       d="m 37.903226,32.580645 -1.612903,0.483871"
       id="path2929"
       transform="translate(0,952.36218)" />
    <path
       style="fill:none;stroke:#f3d900;stroke-width:1px;stroke-linecap:butt;stroke-linejoin:miter;stroke-opacity:1"
       d="M 35.322581,33.548387 35.16129,33.064516"
       id="path2931"
       transform="translate(0,952.36218)" />
    <path
       style="fill:none;stroke:#f3d900;stroke-width:1px;stroke-linecap:butt;stroke-linejoin:miter;stroke-opacity:1"
       d="m 35.322581,32.258065 0,-0.645162"
       id="path2933"
       transform="translate(0,952.36218)" />
    <path
       style="fill:none;stroke:#f3d900;stroke-width:1px;stroke-linecap:butt;stroke-linejoin:miter;stroke-opacity:1"
       d="m 36.290323,32.419355 -0.806452,0.483871"
       id="path2935"
       transform="translate(0,952.36218)" />
    <path
       style="fill:none;stroke:#f3d900;stroke-width:1px;stroke-linecap:butt;stroke-linejoin:miter;stroke-opacity:1"
       d="M 34.83871,32.741935 35,32.258065"
       id="path2937"
       transform="translate(0,952.36218)" />
    <path
       style="fill:none;stroke:#f3d900;stroke-width:1px;stroke-linecap:butt;stroke-linejoin:miter;stroke-opacity:1"
       d="m 37.096774,31.935484 -0.967742,1.290322"
       id="path2939"
       transform="translate(0,952.36218)" />
    <path
       style="fill:none;stroke:#f3d900;stroke-width:1px;stroke-linecap:butt;stroke-linejoin:miter;stroke-opacity:1"
       d="m 34.83871,33.064516 1.129032,-1.129032"
       id="path2941"
       transform="translate(0,952.36218)" />
    <rect
       style="color:#f3d900;fill:#f3d900;fill-opacity:1;fill-rule:nonzero;stroke:none;stroke-width:1px;marker:none;visibility:visible;display:inline;overflow:visible;enable-background:accumulate"
       id="rect2943"
       width="2.4193549"
       height="3.3870969"
       x="35"
       y="31.612904"
       transform="translate(0,952.36218)" />
    <rect
       style="color:#f3d900;fill:#ffd500;fill-opacity:0;fill-rule:nonzero;stroke:none;stroke-width:1px;marker:none;visibility:visible;display:inline;overflow:visible;enable-background:accumulate"
       id="rect3717"
       width="3.3870969"
       height="2.5806451"
       x="12.903226"
       y="57.258064"
       transform="translate(0,952.36218)" />
    <path
       sodipodi:type="arc"
       style="fill:#f3d900;fill-opacity:1;fill-rule:nonzero;stroke:none"
       id="path3725"
       sodipodi:cx="24.193548"
       sodipodi:cy="70.403229"
       sodipodi:rx="15.967742"
       sodipodi:ry="16.532257"
       d="m 40.16129,70.403229 a 15.967742,16.532257 0 1 1 -31.9354838,0 15.967742,16.532257 0 1 1 31.9354838,0 z"
       transform="translate(0,952.36218)" />
    <path
       sodipodi:type="arc"
       style="fill:#f3d900;fill-opacity:1;fill-rule:nonzero;stroke:none"
       id="path3731"
       sodipodi:cx="77.5"
       sodipodi:cy="70.967743"
       sodipodi:rx="16.370968"
       sodipodi:ry="17.096773"
       d="m 93.870968,70.967743 a 16.370968,17.096773 0 1 1 -32.741936,0 16.370968,17.096773 0 1 1 32.741936,0 z"
       transform="translate(-1.3500976e-7,951.23315)" />
    <path
       sodipodi:type="arc"
       style="fill:#f3d900;fill-opacity:1;fill-rule:nonzero;stroke:none"
       id="path3731-5"
       sodipodi:cx="77.5"
       sodipodi:cy="70.967743"
       sodipodi:rx="16.370968"
       sodipodi:ry="17.096773"
       d="m 93.870968,70.967743 a 16.370968,17.096773 0 1 1 -32.741936,0 16.370968,17.096773 0 1 1 32.741936,0 z"
       transform="translate(-53.709678,952.36218)" />
    <path
       sodipodi:type="arc"
       style="fill:#f3d900;fill-opacity:1;fill-rule:nonzero;stroke:none"
       id="path3757"
       sodipodi:cx="33.870968"
       sodipodi:cy="17.82258"
       sodipodi:rx="6.2903223"
       sodipodi:ry="5.7258062"
       d="m 40.16129,17.82258 a 6.2903223,5.7258062 0 1 1 -12.580644,0 6.2903223,5.7258062 0 1 1 12.580644,0 z"
       transform="translate(0,952.36218)" />
    <path
       style="fill:none;stroke:#f3d900;stroke-width:1px;stroke-linecap:butt;stroke-linejoin:miter;stroke-opacity:1"
       d="M 56.290323,75.16129 50.806452,63.870968 47.419355,58.709677 48.064516,53.870968"
       id="path3767"
       transform="translate(0,952.36218)" />
    <path
       style="fill:none;stroke:#f3d900;stroke-width:1px;stroke-linecap:butt;stroke-linejoin:miter;stroke-opacity:1"
       d="M 51.290323,25 50.645161,24.677419"
       id="path3773"
       transform="translate(0,952.36218)" />
    <path
       style="fill:none;stroke:#f3d900;stroke-width:1px;stroke-linecap:butt;stroke-linejoin:miter;stroke-opacity:1"
       d="m 52.258065,25.322581 -0.161291,0.645161 M 50,24.516129 51.451613,25.16129"
       id="path3775"
       transform="translate(0,952.36218)" />
    <path
       style="fill:none;stroke:#f3d900;stroke-width:1px;stroke-linecap:butt;stroke-linejoin:miter;stroke-opacity:1"
       d="M 70,39.677419 69.032258,38.870968"
       id="path3777"
       transform="translate(0,952.36218)" />
    <path
       style="fill:none;stroke:#f3d900;stroke-width:1px;stroke-linecap:butt;stroke-linejoin:miter;stroke-opacity:1"
       d="M 64.516129,43.064516 46.451613,49.83871 55.645161,44.516129"
       id="path3779"
       transform="translate(0,952.36218)" />
    <path
       style="fill:none;stroke:#f3d900;stroke-width:1px;stroke-linecap:butt;stroke-linejoin:miter;stroke-opacity:1"
       d="m 46.935484,49.677419 -0.322581,-0.32258"
       id="path3781"
       transform="translate(0,952.36218)" />
    <path
       style="fill:none;stroke:#f3d900;stroke-width:1px;stroke-linecap:butt;stroke-linejoin:miter;stroke-opacity:1"
       d="m 44.354839,53.870968 1.612903,-4.193549 0,8.225807 5.967742,10.32258"
       id="path3783"
       transform="translate(0,952.36218)" />
    <path
       style="fill:none;stroke:#f3d900;stroke-width:1px;stroke-linecap:butt;stroke-linejoin:miter;stroke-opacity:1"
       d="M 53.709677,70.645161 52.258065,68.387097 50.806452,66.451613"
       id="path3785"
       transform="translate(0,952.36218)" />
    <path
       style="fill:none;stroke:#f3d900;stroke-width:1px;stroke-linecap:butt;stroke-linejoin:miter;stroke-opacity:1"
       d="m 43.709677,61.451613 3.387097,3.225806"
       id="path3787"
       transform="translate(0,952.36218)" />
    <path
       style="fill:none;stroke:#f3d900;stroke-width:1px;stroke-linecap:butt;stroke-linejoin:miter;stroke-opacity:1"
       d="M 40.16129,57.903226 46.935484,65.16129 40.16129,57.741935"
       id="path3791"
       transform="translate(0,952.36218)" />
    <path
       style="fill:none;stroke:#f3d900;stroke-width:1px;stroke-linecap:butt;stroke-linejoin:miter;stroke-opacity:1"
       d="m 40.16129,57.741935 0,-0.16129"
       id="path3793"
       transform="translate(0,952.36218)" />
    <path
       style="fill:none;stroke:#f3d900;stroke-width:1px;stroke-linecap:butt;stroke-linejoin:miter;stroke-opacity:1"
       d="m 41.290323,56.129032 -0.322581,1.612903"
       id="path3797"
       transform="translate(0,952.36218)" />
    <path
       style="fill:none;stroke:#f3d900;stroke-width:1px;stroke-linecap:butt;stroke-linejoin:miter;stroke-opacity:1"
       d="m 41.612903,58.387097 0.322581,-0.483871 12.580645,-4.516129"
       id="path3799"
       transform="translate(0,952.36218)" />
    <path
       style="fill:none;stroke:#f3d900;stroke-width:1px;stroke-linecap:butt;stroke-linejoin:miter;stroke-opacity:1"
       d="M 53.709677,53.709677 69.032258,45"
       id="path3801"
       transform="translate(0,952.36218)" />
    <path
       style="fill:none;stroke:#f3d900;stroke-width:1px;stroke-linecap:butt;stroke-linejoin:miter;stroke-opacity:1"
       d="m 41.612903,57.580645 -0.645161,-0.32258"
       id="path3803"
       transform="translate(0,952.36218)" />
    <path
       style="fill:none;stroke:#f3d900;stroke-width:1px;stroke-linecap:butt;stroke-linejoin:miter;stroke-opacity:1"
       d="m 45.16129,50.806452 -3.387096,3.548387 -1.290323,3.064516"
       id="path3805"
       transform="translate(0,952.36218)" />
    <path
       style="fill:none;stroke:#f3d900;stroke-width:1px;stroke-linecap:butt;stroke-linejoin:miter;stroke-opacity:1"
       d="m 49.032258,24.032258 9.354839,4.83871"
       id="path3807"
       transform="translate(0,952.36218)" />
    <path
       style="fill:none;stroke:#f3d900;stroke-width:1px;stroke-linecap:butt;stroke-linejoin:miter;stroke-opacity:1"
       d="m 35,32.258065 2.258065,-4.67742 -3.064517,3.225807"
       id="path3809"
       transform="translate(0,952.36218)" />
    <path
       style="fill:none;stroke:#f3d900;stroke-width:1px;stroke-linecap:butt;stroke-linejoin:miter;stroke-opacity:1"
       d="m 29.193548,40 5.161291,-9.193548 3.387096,-5.322581"
       id="path3811"
       transform="translate(0,952.36218)" />
    <path
       style="fill:none;stroke:#f3d900;stroke-width:1px;stroke-linecap:butt;stroke-linejoin:miter;stroke-opacity:1"
       d="M 51.290323,36.290323 45.645161,32.096774 43.064516,31.451613 40.322581,31.612903 30,41.290323"
       id="path3813"
       transform="translate(0,952.36218)" />
    <path
       style="fill:none;stroke:#f3d900;stroke-width:1px;stroke-linecap:butt;stroke-linejoin:miter;stroke-opacity:1"
       d="m 43.225806,26.935484 6.935484,7.419355"
       id="path3815"
       transform="translate(0,952.36218)" />
    <path
       style="fill:none;stroke:#f3d900;stroke-width:1px;stroke-linecap:butt;stroke-linejoin:miter;stroke-opacity:1"
       d="m 47.419355,32.419355 1.290322,1.290322"
       id="path3817"
       transform="translate(0,952.36218)" />
    <path
       style="fill:none;stroke:#f3d900;stroke-width:1px;stroke-linecap:butt;stroke-linejoin:miter;stroke-opacity:1"
       d="m 55.806452,34.516129 -0.483871,0.967742"
       id="path3819"
       transform="translate(0,952.36218)" />
  </g>
</svg>
