<?xml version="1.0" encoding="UTF-8" standalone="no"?>
<!-- Created with Inkscape (http://www.inkscape.org/) -->

<svg
   xmlns:dc="http://purl.org/dc/elements/1.1/"
   xmlns:cc="http://creativecommons.org/ns#"
   xmlns:rdf="http://www.w3.org/1999/02/22-rdf-syntax-ns#"
   xmlns:svg="http://www.w3.org/2000/svg"
   xmlns="http://www.w3.org/2000/svg"
   xmlns:sodipodi="http://sodipodi.sourceforge.net/DTD/sodipodi-0.dtd"
   xmlns:inkscape="http://www.inkscape.org/namespaces/inkscape"
   width="100"
   height="100"
   id="svg3063"
   version="1.1"
   inkscape:version="0.48.4 r9939"
   sodipodi:docname="nw.svg">
  <defs
     id="defs3065" />
  <sodipodi:namedview
     id="base"
     pagecolor="#ffffff"
     bordercolor="#666666"
     borderopacity="1.0"
     inkscape:pageopacity="0.0"
     inkscape:pageshadow="2"
     inkscape:zoom="7.64"
     inkscape:cx="59.867725"
     inkscape:cy="50"
     inkscape:document-units="px"
     inkscape:current-layer="layer1"
     showgrid="false"
     inkscape:window-width="1232"
     inkscape:window-height="939"
     inkscape:window-x="48"
     inkscape:window-y="21"
     inkscape:window-maximized="1"
     borderlayer="true"
     inkscape:showpageshadow="false" />
  <metadata
     id="metadata3068">
    <rdf:RDF>
      <cc:Work
         rdf:about="">
        <dc:format>image/svg+xml</dc:format>
        <dc:type
           rdf:resource="http://purl.org/dc/dcmitype/StillImage" />
        <dc:title></dc:title>
      </cc:Work>
    </rdf:RDF>
  </metadata>
  <g
     inkscape:label="1. réteg"
     inkscape:groupmode="layer"
     id="layer1"
     transform="translate(0,-952.36218)">
    <rect
       style="opacity:0.83999999;fill:#ffffff;fill-opacity:1;stroke:none"
       id="rect3071"
       width="100"
       height="100"
       x="0"
       y="952.36218" />
    <g
       id="g4013"
       transform="matrix(1.1591896,0,0,1.1591896,-19.526376,-159.56563)">
      <path
         inkscape:connector-curvature="0"
         id="path3903"
         d="m 78.703704,1019.2934 -1.851852,-1.5873 m 3.042328,-2.7778 1.322752,0.9259 m -1.322752,0.2646 -1.058201,-0.7937 m -0.26455,1.0582 0.529101,1.1905 0.661375,-0.7936 m -0.925926,0.3968 -0.396825,0.9259"
         style="fill:none;stroke:#0000cc;stroke-width:0.86267149px;stroke-linecap:butt;stroke-linejoin:miter;stroke-opacity:1" />
      <g
         id="g3992">
        <path
           style="fill:none;stroke:#0000cc;stroke-width:0.86267149px;stroke-linecap:butt;stroke-linejoin:miter;stroke-opacity:1"
           d="m 77.248677,1017.9706 0.396825,-0.5291 0.793651,-0.9259"
           id="path3905"
           inkscape:connector-curvature="0" />
        <g
           id="g3973">
          <path
             inkscape:connector-curvature="0"
             id="path3907"
             d="m 78.042328,1017.5738 0.5291,-0.9259 -0.5291,2.7778"
             style="fill:none;stroke:#0000cc;stroke-width:0.86267149px;stroke-linecap:butt;stroke-linejoin:miter;stroke-opacity:1" />
          <g
             id="g3956">
            <path
               style="fill:none;stroke:#0000cc;stroke-width:0.86267149px;stroke-linecap:butt;stroke-linejoin:miter;stroke-opacity:1"
               d="m 78.571429,1019.1611 -0.132275,0.7937 1.190476,-3.836"
               id="path3909"
               inkscape:connector-curvature="0" />
            <g
               id="g3941">
              <path
                 inkscape:connector-curvature="0"
                 id="path3911"
                 d="m 78.968254,1014.9283 1.190476,2.7778"
                 style="fill:none;stroke:#0000cc;stroke-width:0.86267149px;stroke-linecap:butt;stroke-linejoin:miter;stroke-opacity:1" />
              <g
                 id="g3928">
                <path
                   style="fill:none;stroke:#0000cc;stroke-width:0.86267149px;stroke-linecap:butt;stroke-linejoin:miter;stroke-opacity:1"
                   d="m 79.232804,1014.3992 1.984127,3.3069"
                   id="path3913"
                   inkscape:connector-curvature="0" />
                <g
                   id="g3917"
                   transform="translate(-16.409793,12.1076)">
                  <g
                     transform="matrix(1.6069767,0,0,1.6069767,-25.40791,-618.60504)"
                     id="g3892">
                    <g
                       id="g3867">
                      <g
                         id="g3858">
                        <path
                           style="fill:#0000cc"
                           d="m 49.466948,1018.3589 c -0.28098,-0.4546 2.42467,-3.7171 6.01256,-7.25 7.12399,-7.0148 10.07409,-10.9981 6.48542,-8.757 -3.75547,2.3453 -3.49491,-0.1829 0.43346,-4.20592 2.29492,-2.35021 4.49794,-3.77669 5.33597,-3.45511 0.78503,0.30125 2.31044,-0.4002 3.38981,-1.55876 1.46072,-1.5679 2.63659,-1.93827 4.59905,-1.44859 3.88724,0.96996 9.13657,4.45676 9.13657,6.06885 0,1.08646 -0.73458,0.95586 -3.25,-0.57782 -4.40486,-2.68569 -5.99181,-2.50582 -8.56194,0.97047 -2.7393,3.70508 -2.73161,3.86368 0.34304,7.07298 1.6006,1.6706 2.29652,3.2532 1.89301,4.3047 -0.89907,2.3429 -2.3849,2.0746 -5.60742,-1.0128 l -2.79274,-2.6756 -6.91475,6.6756 c -6.47678,6.2528 -9.28565,7.8172 -10.50204,5.849 z m -7.60716,-1.0255 c 0,-1.0113 12.27881,-12.3426 14.06675,-12.9812 0.51329,-0.1834 0.90735,0.2666 0.87569,1 -0.0317,0.7333 -2.98487,3.8083 -6.5627,6.8333 -6.95539,5.8807 -8.37974,6.7557 -8.37974,5.1479 z m 30,0.3214 c 0,-0.9865 8.12685,-14.9579 9.54516,-16.4098 2.50126,-2.56034 2.33666,-0.6884 -0.43052,4.8962 -2.60004,5.2472 -2.63477,5.5242 -0.90898,7.25 0.98689,0.9869 1.79434,2.2443 1.79434,2.7943 0,1.6312 -2.82359,1.1376 -3.83542,-0.6704 -0.84135,-1.5034 -1.0703,-1.4534 -2.29024,0.5 -1.19877,1.9195 -3.87434,3.0519 -3.87434,1.6397 z m -1.51523,-29.51728 c -0.69971,-2.20459 0.97316,-4.95201 3.01523,-4.95201 2.04207,0 3.71494,2.74742 3.01523,4.95201 -0.41372,1.30352 -1.50979,2.04799 -3.01523,2.04799 -1.50544,0 -2.60151,-0.74447 -3.01523,-2.04799 z"
                           id="path3050"
                           inkscape:connector-curvature="0" />
                        <path
                           style="fill:none;stroke:#0000cc;stroke-width:0.53682905px;stroke-linecap:butt;stroke-linejoin:miter;stroke-opacity:1"
                           d="M 75.661376,56.878307 75,55.15873 l 1.851852,2.248677"
                           id="path3852"
                           inkscape:connector-curvature="0"
                           transform="translate(0,952.36218)" />
                        <path
                           style="fill:none;stroke:#0000cc;stroke-width:0.53682905px;stroke-linecap:butt;stroke-linejoin:miter;stroke-opacity:1"
                           d="m 72.751323,58.068783 5.68783,4.89418"
                           id="path3856"
                           inkscape:connector-curvature="0"
                           transform="translate(0,952.36218)" />
                      </g>
                      <path
                         transform="translate(0,952.36218)"
                         inkscape:connector-curvature="0"
                         id="path3865"
                         d="m 71.296296,54.365079 3.968254,3.174604 -5.026455,-3.439154"
                         style="fill:none;stroke:#0000cc;stroke-width:0.53682905px;stroke-linecap:butt;stroke-linejoin:miter;stroke-opacity:1" />
                    </g>
                    <path
                       style="fill:none;stroke:#0000cc;stroke-width:0.53682905px;stroke-linecap:butt;stroke-linejoin:miter;stroke-opacity:1"
                       d="m 75.793651,1008.8437 -4.89418,-5.8201"
                       id="path3874"
                       inkscape:connector-curvature="0" />
                  </g>
                  <path
                     transform="translate(0,952.36218)"
                     inkscape:connector-curvature="0"
                     id="path3915"
                     d="m 98.015873,51.851852 -4.232804,-5.555556 m 0,0 -3.835979,-0.396825"
                     style="fill:none;stroke:#0000cc;stroke-width:0.86267149px;stroke-linecap:butt;stroke-linejoin:miter;stroke-opacity:1" />
                </g>
              </g>
            </g>
          </g>
        </g>
      </g>
    </g>
  </g>
</svg>
