<?xml version="1.0" encoding="UTF-8" standalone="no"?>
<!-- Created with Inkscape (http://www.inkscape.org/) -->

<svg
   xmlns:dc="http://purl.org/dc/elements/1.1/"
   xmlns:cc="http://creativecommons.org/ns#"
   xmlns:rdf="http://www.w3.org/1999/02/22-rdf-syntax-ns#"
   xmlns:svg="http://www.w3.org/2000/svg"
   xmlns="http://www.w3.org/2000/svg"
   xmlns:sodipodi="http://sodipodi.sourceforge.net/DTD/sodipodi-0.dtd"
   xmlns:inkscape="http://www.inkscape.org/namespaces/inkscape"
   width="100"
   height="100"
   id="svg2"
   version="1.1"
   inkscape:version="0.48.4 r9939"
   sodipodi:docname="sgy.svg">
  <defs
     id="defs4">
    <inkscape:perspective
       sodipodi:type="inkscape:persp3d"
       inkscape:vp_x="0 : 526.18109 : 1"
       inkscape:vp_y="0 : 1000 : 0"
       inkscape:vp_z="744.09448 : 526.18109 : 1"
       inkscape:persp3d-origin="372.04724 : 350.78739 : 1"
       id="perspective10" />
    <inkscape:perspective
       id="perspective2844"
       inkscape:persp3d-origin="0.5 : 0.33333333 : 1"
       inkscape:vp_z="1 : 0.5 : 1"
       inkscape:vp_y="0 : 1000 : 0"
       inkscape:vp_x="0 : 0.5 : 1"
       sodipodi:type="inkscape:persp3d" />
    <inkscape:perspective
       id="perspective2851"
       inkscape:persp3d-origin="0.5 : 0.33333333 : 1"
       inkscape:vp_z="1 : 0.5 : 1"
       inkscape:vp_y="0 : 1000 : 0"
       inkscape:vp_x="0 : 0.5 : 1"
       sodipodi:type="inkscape:persp3d" />
  </defs>
  <sodipodi:namedview
     id="base"
     pagecolor="#ffffff"
     bordercolor="#666666"
     borderopacity="1.0"
     inkscape:pageopacity="0.0"
     inkscape:pageshadow="2"
     inkscape:zoom="7.13"
     inkscape:cx="60"
     inkscape:cy="50"
     inkscape:document-units="px"
     inkscape:current-layer="layer1"
     showgrid="false"
     inkscape:showpageshadow="false"
     showguides="true"
     inkscape:guide-bbox="true"
     inkscape:window-width="1232"
     inkscape:window-height="939"
     inkscape:window-x="48"
     inkscape:window-y="21"
     inkscape:window-maximized="1"
     borderlayer="true" />
  <metadata
     id="metadata7">
    <rdf:RDF>
      <cc:Work
         rdf:about="">
        <dc:format>image/svg+xml</dc:format>
        <dc:type
           rdf:resource="http://purl.org/dc/dcmitype/StillImage" />
        <dc:title></dc:title>
      </cc:Work>
    </rdf:RDF>
  </metadata>
  <g
     inkscape:label="1. réteg"
     inkscape:groupmode="layer"
     id="layer1"
     transform="translate(0,-952.36218)">
    <rect
       style="color:#e9b724;fill:#ffffff;fill-opacity:1;fill-rule:nonzero;stroke:none;stroke-width:1px;marker:none;visibility:visible;display:inline;overflow:visible;enable-background:accumulate"
       id="rect2823"
       width="100"
       height="100"
       x="0"
       y="952.36218" />
    <g
       transform="translate(-0.49088363,1.1220166)"
       id="g2831">
      <path
         transform="translate(2.0967745,950.5389)"
         d="m 24.123422,50.701263 c 0,4.066613 -3.202452,7.363254 -7.152875,7.363254 -3.950424,0 -7.1528752,-3.296641 -7.1528752,-7.363254 0,-4.066613 3.2024512,-7.363254 7.1528752,-7.363254 3.950423,0 7.152875,3.296641 7.152875,7.363254 z"
         sodipodi:ry="7.3632541"
         sodipodi:rx="7.1528749"
         sodipodi:cy="50.701263"
         sodipodi:cx="16.970547"
         id="path2821"
         style="fill:#e9b724;fill-opacity:1;fill-rule:nonzero;stroke:none"
         sodipodi:type="arc" />
      <path
         transform="translate(6.4516129,944.50103)"
         d="m 40.112201,28.26087 c 0,2.052671 -1.632622,3.71669 -3.646564,3.71669 -2.013941,0 -3.646564,-1.664019 -3.646564,-3.71669 0,-2.052671 1.632623,-3.71669 3.646564,-3.71669 2.013942,0 3.646564,1.664019 3.646564,3.71669 z"
         sodipodi:ry="3.7166901"
         sodipodi:rx="3.6465638"
         sodipodi:cy="28.26087"
         sodipodi:cx="36.465637"
         id="path3597"
         style="fill:#e9b724;fill-opacity:1;fill-rule:nonzero;stroke:none"
         sodipodi:type="arc" />
      <path
         d="m 40.112201,28.26087 c 0,2.052671 -1.632622,3.71669 -3.646564,3.71669 -2.013941,0 -3.646564,-1.664019 -3.646564,-3.71669 0,-2.052671 1.632623,-3.71669 3.646564,-3.71669 2.013942,0 3.646564,1.664019 3.646564,3.71669 z"
         sodipodi:ry="3.7166901"
         sodipodi:rx="3.6465638"
         sodipodi:cy="28.26087"
         sodipodi:cx="36.465637"
         id="path3597-9"
         style="fill:#e9b724;fill-opacity:1;fill-rule:nonzero;stroke:none"
         sodipodi:type="arc"
         transform="translate(-8.9761558,952.85307)" />
      <path
         d="m 40.112201,28.26087 c 0,2.052671 -1.632622,3.71669 -3.646564,3.71669 -2.013941,0 -3.646564,-1.664019 -3.646564,-3.71669 0,-2.052671 1.632623,-3.71669 3.646564,-3.71669 2.013942,0 3.646564,1.664019 3.646564,3.71669 z"
         sodipodi:ry="3.7166901"
         sodipodi:rx="3.6465638"
         sodipodi:cy="28.26087"
         sodipodi:cx="36.465637"
         id="path3597-0"
         style="fill:#e9b724;fill-opacity:1;fill-rule:nonzero;stroke:none"
         sodipodi:type="arc"
         transform="translate(26.647968,999.07328)" />
      <path
         d="m 40.112201,28.26087 c 0,2.052671 -1.632622,3.71669 -3.646564,3.71669 -2.013941,0 -3.646564,-1.664019 -3.646564,-3.71669 0,-2.052671 1.632623,-3.71669 3.646564,-3.71669 2.013942,0 3.646564,1.664019 3.646564,3.71669 z"
         sodipodi:ry="3.7166901"
         sodipodi:rx="3.6465638"
         sodipodi:cy="28.26087"
         sodipodi:cx="36.465637"
         id="path3597-6"
         style="fill:#e9b724;fill-opacity:1;fill-rule:nonzero;stroke:none"
         sodipodi:type="arc"
         transform="translate(42.496495,987.63568)" />
      <path
         d="m 40.112201,28.26087 c 0,2.052671 -1.632622,3.71669 -3.646564,3.71669 -2.013941,0 -3.646564,-1.664019 -3.646564,-3.71669 0,-2.052671 1.632623,-3.71669 3.646564,-3.71669 2.013942,0 3.646564,1.664019 3.646564,3.71669 z"
         sodipodi:ry="3.7166901"
         sodipodi:rx="3.6465638"
         sodipodi:cy="28.26087"
         sodipodi:cx="36.465637"
         id="path3597-3"
         style="fill:#e9b724;fill-opacity:1;fill-rule:nonzero;stroke:none"
         sodipodi:type="arc"
         transform="translate(6.7321184,999.35368)" />
      <path
         d="m 40.112201,28.26087 c 0,2.052671 -1.632622,3.71669 -3.646564,3.71669 -2.013941,0 -3.646564,-1.664019 -3.646564,-3.71669 0,-2.052671 1.632623,-3.71669 3.646564,-3.71669 2.013942,0 3.646564,1.664019 3.646564,3.71669 z"
         sodipodi:ry="3.7166901"
         sodipodi:rx="3.6465638"
         sodipodi:cy="28.26087"
         sodipodi:cx="36.465637"
         id="path3597-00"
         style="fill:#e9b724;fill-opacity:1;fill-rule:nonzero;stroke:none"
         sodipodi:type="arc"
         transform="translate(-8.6956518,991.28224)" />
      <path
         d="m 40.112201,28.26087 c 0,2.052671 -1.632622,3.71669 -3.646564,3.71669 -2.013941,0 -3.646564,-1.664019 -3.646564,-3.71669 0,-2.052671 1.632623,-3.71669 3.646564,-3.71669 2.013942,0 3.646564,1.664019 3.646564,3.71669 z"
         sodipodi:ry="3.7166901"
         sodipodi:rx="3.6465638"
         sodipodi:cy="28.26087"
         sodipodi:cx="36.465637"
         id="path3597-39"
         style="fill:#e9b724;fill-opacity:1;fill-rule:nonzero;stroke:none"
         sodipodi:type="arc"
         transform="translate(41.374474,955.0971)" />
      <path
         d="m 40.112201,28.26087 c 0,2.052671 -1.632622,3.71669 -3.646564,3.71669 -2.013941,0 -3.646564,-1.664019 -3.646564,-3.71669 0,-2.052671 1.632623,-3.71669 3.646564,-3.71669 2.013942,0 3.646564,1.664019 3.646564,3.71669 z"
         sodipodi:ry="3.7166901"
         sodipodi:rx="3.6465638"
         sodipodi:cy="28.26087"
         sodipodi:cx="36.465637"
         id="path3597-90"
         style="fill:#e9b724;fill-opacity:1;fill-rule:nonzero;stroke:none"
         sodipodi:type="arc"
         transform="translate(24.544179,944.36078)" />
      <path
         d="m 40.112201,28.26087 c 0,2.052671 -1.632622,3.71669 -3.646564,3.71669 -2.013941,0 -3.646564,-1.664019 -3.646564,-3.71669 0,-2.052671 1.632623,-3.71669 3.646564,-3.71669 2.013942,0 3.646564,1.664019 3.646564,3.71669 z"
         sodipodi:ry="3.7166901"
         sodipodi:rx="3.6465638"
         sodipodi:cy="28.26087"
         sodipodi:cx="36.465637"
         id="path3597-1"
         style="fill:#e9b724;fill-opacity:1;fill-rule:nonzero;stroke:none"
         sodipodi:type="arc"
         transform="translate(48.95512,972.06766)" />
    </g>
  </g>
</svg>
