<?xml version="1.0" encoding="UTF-8" standalone="no"?>
<!-- Created with Inkscape (http://www.inkscape.org/) -->

<svg
   xmlns:dc="http://purl.org/dc/elements/1.1/"
   xmlns:cc="http://creativecommons.org/ns#"
   xmlns:rdf="http://www.w3.org/1999/02/22-rdf-syntax-ns#"
   xmlns:svg="http://www.w3.org/2000/svg"
   xmlns="http://www.w3.org/2000/svg"
   xmlns:sodipodi="http://sodipodi.sourceforge.net/DTD/sodipodi-0.dtd"
   xmlns:inkscape="http://www.inkscape.org/namespaces/inkscape"
   width="100"
   height="100"
   id="svg3015"
   version="1.1"
   inkscape:version="0.48.4 r9939"
   sodipodi:docname="stm.svg">
  <defs
     id="defs3017" />
  <sodipodi:namedview
     id="base"
     pagecolor="#ffffff"
     bordercolor="#666666"
     borderopacity="1.0"
     inkscape:pageopacity="0.0"
     inkscape:pageshadow="2"
     inkscape:zoom="7.56"
     inkscape:cx="60"
     inkscape:cy="50"
     inkscape:document-units="px"
     inkscape:current-layer="layer1"
     showgrid="false"
     showguides="true"
     inkscape:guide-bbox="true"
     inkscape:window-width="1232"
     inkscape:window-height="939"
     inkscape:window-x="48"
     inkscape:window-y="21"
     inkscape:window-maximized="1"
     borderlayer="true"
     inkscape:showpageshadow="false" />
  <metadata
     id="metadata3020">
    <rdf:RDF>
      <cc:Work
         rdf:about="">
        <dc:format>image/svg+xml</dc:format>
        <dc:type
           rdf:resource="http://purl.org/dc/dcmitype/StillImage" />
        <dc:title></dc:title>
      </cc:Work>
    </rdf:RDF>
  </metadata>
  <g
     inkscape:label="1. réteg"
     inkscape:groupmode="layer"
     id="layer1"
     transform="translate(0,-952.36218)">
    <rect
       style="color:#e9b724;fill:#ffffff;fill-opacity:1;fill-rule:nonzero;stroke:none;stroke-width:0;marker:none;visibility:visible;display:inline;overflow:visible;enable-background:accumulate"
       id="rect2823"
       width="100"
       height="100"
       x="0"
       y="952.36218" />
    <g
       id="g4197"
       transform="matrix(0.9070252,0,0,0.98067233,-4.1292935,19.228292)"
       style="fill:#e9b724;fill-opacity:1;stroke:#e9b724;stroke-width:1.92072189;stroke-miterlimit:4;stroke-opacity:1;stroke-dasharray:none">
      <g
         style="font-size:61.11526871px;font-style:normal;font-variant:normal;font-weight:normal;font-stretch:normal;line-height:125%;letter-spacing:0px;word-spacing:0px;fill:#e9b724;stroke:#e9b724;font-family:Linux Libertine Display Capitals O;-inkscape-font-specification:Linux Libertine Display Capitals O"
         id="text4185">
        <path
           d="m 32.706638,983.74767 c -3.544682,-0.48892 -3.361346,-1.65012 -9.350636,-1.65012 -6.172636,0 -11.611901,4.09473 -11.611901,10.57295 0,5.74483 4.033612,8.495 8.800598,10.5118 3.850259,1.7112 10.20625,3.0558 10.20625,10.0229 0,4.9504 -2.933537,8.1284 -7.761639,8.1284 -5.744829,0 -10.022905,-3.178 -11.36744,-9.2896 -0.733382,-0.2444 -0.794499,-0.1222 -1.344536,0.1834 0.244461,4.7059 0.488923,6.2949 1.222306,9.2895 3.850258,0 5.500379,1.4057 10.939633,1.4057 2.811299,0 5.439261,-0.6723 7.578293,-1.9557 3.483567,-2.2002 5.744835,-5.9893 5.744835,-9.9007 0,-5.806 -3.972497,-8.5561 -8.433907,-10.4507 -2.93353,-1.22232 -11.36744,-3.60583 -11.36744,-9.59512 0,-3.42245 3.239113,-7.45606 6.783795,-7.45606 5.98929,0 8.495024,4.4003 9.717328,8.43391 0.672267,0 0.794499,0.0611 1.344536,-0.36669 -0.183346,-2.93353 -0.427808,-4.64477 -1.100075,-7.88387"
           id="path3075"
           inkscape:connector-curvature="0" />
      </g>
      <g
         style="font-size:28.804842px;font-style:normal;font-variant:normal;font-weight:normal;font-stretch:normal;line-height:125%;letter-spacing:0px;word-spacing:0px;fill:#e9b724;stroke:#e9b724;font-family:Linux Libertine Display Capitals O;-inkscape-font-specification:Linux Libertine Display Capitals O"
         id="text4189">
        <path
           d="m 44.335889,986.93139 c 0.05761,2.3908 0.05761,3.80224 0.05761,6.19304 0,2.3908 0,3.71583 -0.05761,6.10663 -0.05761,2.39084 -0.806537,2.53484 -2.822874,2.62124 -0.172829,0.1728 -0.172829,0.4897 0,0.6625 1.411436,-0.029 2.448413,-0.144 4.032678,-0.144 1.55546,0 2.563632,0.1152 4.003873,0.144 0.172829,-0.1728 0.172829,-0.4897 0,-0.6625 -2.016337,-0.086 -2.765265,-0.2304 -2.822875,-2.62124 -0.05761,-2.36199 -0.05761,-3.68702 -0.05761,-6.07782 0,-2.3908 -0.02881,-3.77344 0.05761,-6.22185 0.05761,-1.8435 0.316855,-2.30438 1.353828,-2.30438 l 0.921755,0 c 2.160361,0 3.514191,1.03697 4.003873,3.25494 0.316853,0 0.432073,-0.0288 0.691316,-0.14402 -0.201634,-1.32502 -0.345658,-2.88049 -0.374463,-4.1767 0,-0.0288 -0.05761,-0.0864 -0.08641,-0.0864 -0.979364,0.0864 -4.176705,0.31686 -6.452285,0.31686 l -2.477216,0 c -2.217971,0 -5.616946,-0.23044 -6.711529,-0.31686 -0.05761,0 -0.115219,0.0576 -0.115219,0.0864 -0.115219,1.29621 -0.403268,2.88048 -0.720121,4.26311 0.288048,0.11522 0.345658,0.14403 0.691316,0.14403 0.576096,-2.30439 1.901122,-3.34136 3.802239,-3.34136 l 1.699486,0 c 1.065778,0 1.325023,0.54729 1.382632,2.30438"
           id="path3078"
           inkscape:connector-curvature="0" />
      </g>
      <g
         style="font-size:61.25152588px;font-style:normal;font-variant:normal;font-weight:normal;font-stretch:normal;line-height:125%;letter-spacing:0px;word-spacing:0px;fill:#e9b724;stroke:#e9b724;font-family:Linux Libertine Display Capitals O;-inkscape-font-specification:Linux Libertine Display Capitals O"
         id="text4193">
        <path
           d="m 99.874743,1015.6349 c 0.306257,4.9613 0.06125,5.0226 -3.920097,5.2064 -0.367509,0.3675 -0.367509,1.0412 0,1.4087 2.878819,-0.061 4.961374,-0.3062 6.553914,-0.3062 1.77629,0 4.96137,0.245 6.98267,0.3062 0.36751,-0.3675 0.36751,-1.0412 0,-1.4087 -4.1651,-0.1838 -4.34886,-0.4288 -4.71636,-5.5127 l -2.0213,-26.58314 c -0.24501,-3.30758 0.0613,-4.96137 4.22635,-5.20638 0.36751,-0.36751 0.36751,-1.04128 0,-1.40879 l -8.085201,0.30626 -12.985324,31.05455 c -0.367508,0.8575 -0.367509,0.7962 -0.612515,0.7962 -0.245006,0 -0.306258,-0.1837 -0.551264,-0.735 l -12.556562,-31.11575 -8.207705,-0.30626 c -0.367509,0.36751 -0.367509,1.04128 0,1.40879 4.226351,0.24501 4.655116,1.22503 4.165104,5.75764 l -2.695067,26.03188 c -0.367509,3.6751 -1.102531,5.2064 -4.593865,5.5127 -0.367508,0.3675 -0.367508,1.0412 0,1.4087 1.837544,-0.061 3.920099,-0.3062 5.390135,-0.3062 1.470035,0 3.430087,0.245 5.267631,0.3062 0.367509,-0.3675 0.367509,-1.0412 0,-1.4087 -4.042597,-0.3063 -4.348858,-2.1438 -4.042601,-5.6352 l 2.327558,-25.35811 0.122503,0 12.679066,31.78951 c 0.183754,0.49 0.551264,0.6738 0.918773,0.6738 0.367509,0 0.612515,-0.1838 0.857521,-0.6738 l 13.781594,-32.40203 0.122503,0 1.592539,26.39943"
           id="path3081"
           inkscape:connector-curvature="0" />
      </g>
    </g>
  </g>
</svg>
