<?xml version="1.0" encoding="UTF-8" standalone="no"?>
<!-- Created with Inkscape (http://www.inkscape.org/) -->

<svg
   xmlns:dc="http://purl.org/dc/elements/1.1/"
   xmlns:cc="http://creativecommons.org/ns#"
   xmlns:rdf="http://www.w3.org/1999/02/22-rdf-syntax-ns#"
   xmlns:svg="http://www.w3.org/2000/svg"
   xmlns="http://www.w3.org/2000/svg"
   xmlns:sodipodi="http://sodipodi.sourceforge.net/DTD/sodipodi-0.dtd"
   xmlns:inkscape="http://www.inkscape.org/namespaces/inkscape"
   id="svg3036"
   version="1.1"
   inkscape:version="0.48.4 r9939"
   width="100"
   height="100"
   sodipodi:docname="zszolo.svg">
  <metadata
     id="metadata3042">
    <rdf:RDF>
      <cc:Work
         rdf:about="">
        <dc:format>image/svg+xml</dc:format>
        <dc:type
           rdf:resource="http://purl.org/dc/dcmitype/StillImage" />
        <dc:title></dc:title>
      </cc:Work>
    </rdf:RDF>
  </metadata>
  <defs
     id="defs3040" />
  <sodipodi:namedview
     pagecolor="#ffffff"
     bordercolor="#666666"
     borderopacity="1"
     objecttolerance="10"
     gridtolerance="10"
     guidetolerance="10"
     inkscape:pageopacity="0"
     inkscape:pageshadow="2"
     inkscape:window-width="1232"
     inkscape:window-height="939"
     id="namedview3038"
     showgrid="false"
     borderlayer="true"
     inkscape:showpageshadow="false"
     inkscape:zoom="6.7416667"
     inkscape:cx="60"
     inkscape:cy="55.933251"
     inkscape:window-x="48"
     inkscape:window-y="21"
     inkscape:window-maximized="1"
     inkscape:current-layer="svg3036" />
  <rect
     style="fill:#ffffff;fill-opacity:1;stroke:none"
     id="rect3824"
     width="100"
     height="100"
     x="0"
     y="4.7039738e-15" />
  <path
     style="fill:#00b400;fill-opacity:1"
     d="m 47.906945,92.390071 c -0.275183,-0.04778 -1.231169,-0.437699 -2.124503,-0.866056 -2.00766,-0.962658 -3.424293,-2.422624 -4.456393,-4.592879 -0.631396,-1.327558 -0.721526,-1.71816 -0.790054,-3.424416 -0.119449,-2.972712 0.59481,-4.959793 2.52403,-7.022332 1.857786,-1.986079 4.148045,-2.962681 6.948018,-2.962681 2.878309,0 5.147813,0.999583 7.087056,3.121364 1.797723,1.967 2.511216,4.044043 2.384509,6.94135 -0.07168,1.63475 -0.169846,2.044126 -0.819981,3.413132 -1.239201,2.60929 -3.52346,4.532364 -6.250269,5.261808 -0.942648,0.252083 -3.39705,0.323422 -4.502413,0.13071 z M 36.801029,73.300136 c -3.503098,-0.707378 -6.489535,-3.538224 -7.419988,-7.033492 -0.846091,-3.178106 0.166983,-6.826566 2.543365,-9.159608 4.712118,-4.626248 12.470304,-3.25435 15.309592,2.707358 2.051271,4.307081 0.536134,9.64914 -3.446649,12.152087 -1.94828,1.224413 -4.816142,1.771868 -6.98632,1.333655 z m 22.845208,0.01195 c -0.532108,-0.08943 -1.637913,-0.480831 -2.457328,-0.870007 -4.418338,-2.09821 -6.522459,-7.418163 -4.741117,-11.986733 1.695018,-4.347109 6.367816,-6.882717 10.907544,-5.918879 1.689729,0.358734 3.457774,1.331661 4.754308,2.6161 5.356893,5.307313 2.642909,14.510369 -4.740506,16.074963 -1.481409,0.31391 -2.252218,0.331395 -3.722901,0.08456 z M 25.454509,53.524854 C 21.106121,52.134517 18.2314,47.654889 18.874297,43.271031 c 0.340215,-2.319896 1.05597,-3.815443 2.599091,-5.430916 3.226518,-3.377767 8.341747,-3.913094 12.264685,-1.283567 3.943988,2.643581 5.280616,7.97568 3.085295,12.307931 -1.07675,2.124902 -3.40141,4.037891 -5.756617,4.737334 -1.426173,0.423549 -4.164421,0.38599 -5.612242,-0.07713 z m 21.60435,-0.0028 c -2.943887,-0.941076 -5.400662,-3.490923 -6.264941,-6.502121 -0.257061,-0.895701 -0.317554,-1.671684 -0.246061,-3.156714 0.08721,-1.812147 0.160996,-2.102648 0.925017,-3.644434 2.968589,-5.990881 10.996825,-7.187961 15.510369,-2.312755 1.729498,1.868026 2.515913,3.894793 2.524964,6.507536 0.01144,3.320316 -1.564187,6.244339 -4.364549,8.099223 -2.062999,1.366453 -5.590019,1.806764 -8.084799,1.009255 z m 21.656091,0.02602 c -3.902443,-1.292174 -6.600428,-5.029226 -6.600428,-9.142506 0,-5.242416 4.263913,-9.511474 9.491284,-9.502707 2.568622,0.0066 4.57116,0.785511 6.509016,2.53923 5.0081,4.532032 3.763541,12.656448 -2.393056,15.622578 -1.400943,0.674939 -1.6473,0.727217 -3.702014,0.78589 -1.722451,0.04902 -2.44115,-0.01637 -3.304802,-0.302576 z m -5.399846,-22.76326 c -5.88973,-4.036944 -14.047909,-5.20704 -21.311329,-3.056472 -1.71664,0.50826 -4.609669,1.842716 -6.198847,2.859258 l -1.183239,0.756946 -1.711838,-0.572812 C 31.325126,30.241413 30.97196,30.198875 28.152042,30.198875 l -3.04596,0 1.144958,-1.163434 c 6.604088,-6.710729 16.4957,-10.391961 25.714253,-9.569767 2.512563,0.224107 2.574239,0.219758 3.501897,-0.244491 0.519346,-0.259971 1.709652,-0.722893 2.645198,-1.028802 3.070973,-1.004246 5.017906,-2.203045 6.824195,-4.202053 1.563447,-1.730302 3.121805,-3.646387 4.10664,-5.0493731 0.522865,-0.7447423 0.977924,-1.3908715 1.011473,-1.4358533 0.112006,-0.1503023 7.113006,3.0684534 7.20701,3.3134264 0.09495,0.247184 -1.444236,2.661443 -2.723613,4.27236 -3.03049,3.815877 -5.582355,6.44518 -7.470981,7.697955 -0.632824,0.419788 -1.150586,0.823966 -1.150586,0.898241 0,0.0742 0.562822,0.495717 1.250648,0.936555 1.626089,1.042141 3.969405,2.952529 5.346099,4.358354 l 1.093677,1.116888 -2.012344,0 c -2.170688,0 -4.419552,0.456484 -5.854043,1.188344 -0.444691,0.226881 -0.879759,0.407277 -0.966641,0.400891 -0.08693,-0.0083 -0.743395,-0.412859 -1.458818,-0.903216 z"
     id="path3054"
     inkscape:connector-curvature="0"
     sodipodi:nodetypes="ssssssssssssssssssssssssssssssssssssssscsssssccssscsscsssssscsssssscsscs" />
</svg>
